<?xml version="1.0" encoding="UTF-8" standalone="no"?>
<svg
   xmlns:dc="http://purl.org/dc/elements/1.1/"
   xmlns:cc="http://creativecommons.org/ns#"
   xmlns:rdf="http://www.w3.org/1999/02/22-rdf-syntax-ns#"
   xmlns:svg="http://www.w3.org/2000/svg"
   xmlns="http://www.w3.org/2000/svg"
   id="svg8"
   version="1.1"
   viewBox="0 0 360 170"
   height="17cm"
   width="36cm">
  <defs
     id="defs2" />
  <metadata
     id="metadata5">
    <rdf:RDF>
      <cc:Work
         rdf:about="">
        <dc:format>image/svg+xml</dc:format>
        <dc:type
           rdf:resource="http://purl.org/dc/dcmitype/StillImage" />
        <dc:title></dc:title>
      </cc:Work>
    </rdf:RDF>
  </metadata>
  <g
     transform="translate(0,-127.00)"
     id="layer1">
    <g
       transform="matrix(1.24,0,0,1.01,-47.76,-14.23)"
       id="g21">
      <path
         id="path51"
         d="m 61.02,226.47 c -0.18,-0.21 -0.19,-0.90 -0.02,-1.38 0.16,-0.44 0.72,-1.01 1.08,-1.10 0.26,-0.06 0.69,-0.42 1.72,-1.45 0.51,-0.50 0.75,-0.89 1.39,-2.21 0.73,-1.51 0.73,-1.51 0.80,-3.53 0.03,-1.02 0.09,-1.91 0.13,-1.98 0.03,-0.06 -0.00,-0.39 -0.07,-0.74 -0.16,-0.73 -0.25,-2.12 -0.29,-4.49 -0.01,-1.14 -0.06,-1.77 -0.15,-1.95 -0.09,-0.18 -0.13,-0.89 -0.15,-2.49 -0.01,-1.22 -0.07,-2.55 -0.12,-2.95 -0.11,-0.93 -0.11,-1.88 0.00,-2.38 0.05,-0.23 0.06,-0.49 0.01,-0.64 -0.06,-0.21 -0.09,-0.13 -0.18,0.44 -0.05,0.38 -0.12,1.24 -0.15,1.91 -0.02,0.66 -0.11,1.78 -0.20,2.49 -0.08,0.70 -0.11,1.41 -0.08,1.56 0.03,0.15 0.11,0.79 0.17,1.43 0.12,1.32 -0.01,3.54 -0.29,4.63 -0.32,1.26 -0.18,4.91 0.25,6.61 0.13,0.50 0.10,1.25 -0.06,1.81 -0.18,0.61 -0.62,1.08 -1.42,1.49 -0.32,0.16 -0.84,0.50 -1.15,0.74 -0.53,0.41 -1.51,0.97 -2.03,1.15 -0.12,0.04 -0.59,0.26 -1.04,0.49 -0.64,0.33 -0.97,0.42 -1.63,0.48 -1.07,0.09 -1.26,0.03 -1.50,-0.49 -0.30,-0.69 -0.24,-0.92 0.37,-1.41 0.18,-0.14 0.46,-0.39 0.61,-0.55 0.35,-0.36 1.55,-1.26 2.16,-1.61 0.48,-0.27 1.47,-1.40 1.75,-1.99 0.14,-0.30 0.16,-0.63 0.15,-2.36 -0.00,-1.85 -0.09,-2.89 -0.42,-5.16 -0.21,-1.45 -0.25,-2.58 -0.17,-4.45 0.05,-1.20 0.05,-2.16 -0.00,-2.50 -0.04,-0.29 -0.11,-0.88 -0.15,-1.30 -0.03,-0.41 -0.14,-1.15 -0.24,-1.63 -0.10,-0.47 -0.22,-1.23 -0.27,-1.68 -0.12,-1.04 -0.19,-1.13 -0.83,-0.96 -0.44,0.11 -0.57,0.10 -1.32,-0.15 -0.45,-0.15 -1.08,-0.34 -1.38,-0.41 -0.61,-0.14 -1.01,-0.55 -1.01,-1.02 0,-0.29 -0.19,-0.35 -0.38,-0.10 -0.06,0.08 -0.23,0.16 -0.38,0.16 -0.31,0 -0.35,0.06 -0.50,0.72 -0.12,0.57 -0.34,0.80 -0.57,0.58 -0.18,-0.17 -0.21,-1.47 -0.04,-1.90 0.06,-0.15 0.08,-0.31 0.04,-0.35 -0.13,-0.15 -0.39,0.16 -0.72,0.85 -0.46,0.98 -0.54,1.08 -0.78,0.94 -0.16,-0.09 -0.18,-0.18 -0.12,-0.56 0.03,-0.24 0.19,-0.71 0.35,-1.03 0.15,-0.32 0.25,-0.61 0.22,-0.65 -0.03,-0.03 -0.31,0.23 -0.62,0.61 -0.62,0.77 -0.90,0.85 -0.88,0.25 0.01,-0.45 0.31,-0.94 0.90,-1.48 0.25,-0.23 0.42,-0.44 0.37,-0.46 -0.11,-0.04 -1.12,0.57 -1.39,0.86 -0.27,0.28 -0.32,0.25 -0.32,-0.20 8.97e-4,-0.49 0.26,-0.82 1.41,-1.79 1.01,-0.85 0.94,-0.77 1.43,-1.53 l 0.42,-0.64 -0.28,-0.22 c -0.59,-0.47 -0.90,-0.95 -0.90,-1.38 0,-0.63 0.75,-2.91 1.46,-4.44 0.40,-0.87 0.58,-1.46 0.76,-2.54 0.07,-0.45 0.24,-1.07 0.37,-1.36 0.12,-0.29 0.39,-1.06 0.58,-1.71 0.19,-0.64 0.46,-1.41 0.59,-1.71 0.14,-0.31 0.26,-0.85 0.31,-1.31 0.06,-0.66 0.28,-1.71 0.67,-3.20 0.16,-0.64 1.20,-2.92 1.61,-3.56 l 0.39,-0.60 -0.15,-0.53 c -0.08,-0.29 -0.12,-0.60 -0.10,-0.67 0.02,-0.07 0.00,-0.17 -0.04,-0.21 -0.05,-0.03 -0.21,0.22 -0.35,0.59 -0.27,0.68 -0.69,1.19 -0.99,1.19 -0.26,0 -0.58,-0.58 -0.51,-0.91 0.03,-0.16 -0.00,-0.46 -0.09,-0.71 -0.09,-0.26 -0.15,-0.75 -0.15,-1.23 0,-0.43 -0.02,-0.82 -0.05,-0.86 -0.10,-0.12 -0.60,0.25 -0.60,0.45 0,0.35 -0.46,1.66 -0.67,1.93 -0.35,0.43 -1.12,0.28 -1.12,-0.21 0,-0.13 0.10,-0.42 0.23,-0.64 0.13,-0.22 0.23,-0.53 0.23,-0.70 7.7e-5,-0.30 0.27,-1.25 0.40,-1.40 0.16,-0.19 0.04,-0.24 -0.21,-0.09 -0.15,0.09 -0.38,0.16 -0.50,0.16 -0.12,0 -0.41,0.11 -0.64,0.24 -0.28,0.16 -0.51,0.23 -0.70,0.18 -0.25,-0.05 -0.28,-0.10 -0.31,-0.47 -0.04,-0.59 0.17,-0.81 1.13,-1.15 0.36,-0.12 0.45,-0.32 0.46,-0.92 l 0.00,-0.32 -0.31,0.34 c -0.17,0.19 -0.39,0.34 -0.48,0.34 -0.09,0 -0.19,0.10 -0.22,0.22 -0.07,0.31 -0.45,0.46 -0.76,0.29 -0.53,-0.29 -0.50,-1.14 0.04,-1.54 0.33,-0.24 0.46,-0.49 0.55,-1.07 0.04,-0.24 0.02,-0.39 -0.03,-0.39 -0.11,0 -0.52,0.60 -0.61,0.89 -0.07,0.23 -0.41,0.39 -0.66,0.31 -0.09,-0.02 -0.24,-0.22 -0.32,-0.43 -0.12,-0.34 -0.12,-0.42 0.01,-0.77 0.08,-0.21 0.38,-0.61 0.66,-0.90 0.74,-0.76 0.81,-1.46 0.18,-1.76 -0.27,-0.12 -0.32,-0.20 -0.32,-0.50 0,-0.19 0.12,-0.60 0.27,-0.91 0.27,-0.56 0.27,-0.56 0.08,-0.75 -0.15,-0.15 -0.17,-0.26 -0.12,-0.58 0.03,-0.21 0.11,-0.49 0.18,-0.61 0.06,-0.12 0.09,-0.31 0.05,-0.43 -0.13,-0.44 0.07,-0.77 0.68,-1.04 0.65,-0.29 0.73,-0.41 0.51,-0.76 -0.08,-0.13 -0.15,-0.46 -0.15,-0.74 0,-0.55 0.12,-0.74 0.67,-1.00 0.68,-0.32 1.13,-0.71 1.13,-0.99 0,-0.64 0.44,-1.14 1.00,-1.14 0.15,0 0.56,-0.24 1.02,-0.59 0.64,-0.49 0.83,-0.59 1.15,-0.57 0.26,0.01 0.60,-0.10 1.13,-0.40 0.66,-0.37 0.86,-0.42 1.80,-0.51 1.02,-0.09 2.56,-0.05 3.88,0.08 0.41,0.04 0.70,0.02 0.84,-0.06 0.11,-0.07 0.56,-0.15 0.99,-0.18 0.85,-0.06 1.03,0.00 2.56,1.00 0.31,0.20 0.69,0.37 0.84,0.37 0.62,0.00 2.13,0.96 3.06,1.94 0.31,0.33 0.72,0.71 0.90,0.83 0.36,0.24 0.45,0.59 0.26,0.99 -0.11,0.23 -0.09,0.28 0.18,0.58 0.17,0.17 0.34,0.32 0.38,0.32 0.04,0 0.12,0.11 0.17,0.25 0.08,0.20 0.06,0.32 -0.09,0.62 -0.18,0.34 -0.18,0.37 -0.02,0.47 0.53,0.36 0.64,0.52 0.58,0.89 -0.04,0.34 -0.03,0.37 0.32,0.54 0.46,0.21 1.03,1.01 1.03,1.47 0,0.26 -0.06,0.34 -0.39,0.51 l -0.39,0.20 0.29,0.17 c 0.33,0.19 0.46,0.58 0.31,0.90 -0.08,0.19 -0.28,0.31 -0.79,0.50 -0.25,0.09 -0.19,0.36 0.11,0.48 0.66,0.26 0.87,0.91 0.42,1.31 -0.18,0.16 -0.33,0.21 -0.55,0.16 -0.19,-0.04 -0.33,-0.01 -0.40,0.08 -0.15,0.21 0.04,1.03 0.37,1.49 0.30,0.42 0.34,0.77 0.12,1.02 -0.18,0.21 -0.70,0.22 -0.95,0.01 -0.35,-0.30 -0.61,-0.15 -0.61,0.35 0.00,0.09 0.15,0.44 0.33,0.77 0.48,0.87 0.43,1.10 -0.26,1.24 -0.32,0.06 -0.38,0.03 -0.61,-0.25 -0.25,-0.33 -0.59,-0.44 -0.59,-0.20 0,0.07 0.04,0.27 0.10,0.46 0.22,0.69 -0.39,1.55 -0.82,1.14 -0.07,-0.07 -0.23,-0.37 -0.34,-0.66 -0.10,-0.28 -0.22,-0.52 -0.26,-0.52 -0.03,0 -0.16,0.11 -0.28,0.26 -0.21,0.25 -0.21,0.26 -0.05,0.89 0.28,1.16 0.28,1.39 -0.00,1.65 l -0.26,0.23 0.20,0.47 c 0.11,0.25 0.20,0.56 0.20,0.68 0,0.11 0.12,0.62 0.28,1.12 0.15,0.50 0.28,1.05 0.28,1.22 0.00,0.16 0.08,0.53 0.18,0.81 0.10,0.28 0.25,0.97 0.34,1.54 0.08,0.56 0.21,1.15 0.28,1.30 0.13,0.29 0.25,0.94 0.46,2.38 0.07,0.50 0.20,1.29 0.28,1.73 0.08,0.44 0.21,1.18 0.28,1.63 0.07,0.44 0.18,1.00 0.24,1.23 0.05,0.22 0.08,0.48 0.05,0.56 -0.02,0.08 0.01,0.40 0.08,0.72 0.27,1.13 0.44,2.00 0.52,2.74 0.04,0.41 0.21,1.16 0.37,1.65 0.35,1.08 0.34,1.34 -0.07,1.50 -0.16,0.06 -0.42,0.20 -0.55,0.32 -0.24,0.21 -0.24,0.22 -0.13,0.83 0.08,0.45 0.25,0.84 0.62,1.44 0.28,0.45 0.56,0.92 0.62,1.06 0.06,0.13 0.25,0.44 0.42,0.68 0.17,0.24 0.31,0.49 0.31,0.55 0,0.06 0.06,0.25 0.14,0.42 0.17,0.39 0.18,0.62 0.00,0.79 -0.18,0.17 -0.50,-0.02 -0.58,-0.37 -0.05,-0.23 -0.32,-0.61 -0.32,-0.44 0,0.03 0.07,0.35 0.15,0.71 0.17,0.70 0.13,0.98 -0.14,0.98 -0.22,0 -0.33,-0.15 -0.48,-0.67 -0.13,-0.48 -0.35,-0.72 -0.50,-0.54 -0.07,0.08 -0.06,0.24 0.05,0.56 0.27,0.78 0.13,1.42 -0.26,1.24 -0.09,-0.04 -0.27,0.02 -0.46,0.18 -0.27,0.23 -0.41,0.26 -1.47,0.29 -1.16,0.03 -1.17,0.03 -1.59,0.39 -0.30,0.26 -0.55,0.38 -0.94,0.43 -0.29,0.04 -0.58,0.14 -0.65,0.21 -0.31,0.36 -0.41,4.87 -0.14,6.87 0.24,1.85 0.18,3.43 -0.19,5.24 -0.09,0.44 -0.22,1.23 -0.28,1.73 -0.05,0.50 -0.16,1.22 -0.24,1.60 -0.07,0.37 -0.11,0.74 -0.08,0.83 0.07,0.22 -0.13,1.74 -0.34,2.53 -0.24,0.88 -0.24,1.60 0.00,1.95 0.28,0.40 0.26,1.32 -0.04,1.91 -0.38,0.74 -2.26,2.56 -3.52,3.41 -0.26,0.17 -0.86,0.49 -1.33,0.71 -0.81,0.37 -0.91,0.40 -1.92,0.40 -0.83,0 -1.09,-0.03 -1.21,-0.17 z m -6.37,-31.24 c 0.03,-0.19 0.01,-0.33 -0.03,-0.33 -0.11,0 -0.30,0.57 -0.30,0.91 0,0.22 9.33e-4,0.22 0.14,-0.00 0.07,-0.12 0.17,-0.38 0.20,-0.56 z m 1.43,-1.47 c 0.09,-0.14 0.41,-0.64 0.71,-1.09 0.30,-0.45 0.52,-0.87 0.49,-0.92 -0.02,-0.05 -0.34,-0.09 -0.71,-0.09 -0.57,0 -0.67,0.02 -0.79,0.24 -0.20,0.37 -0.27,0.88 -0.19,1.54 0.07,0.67 0.21,0.76 0.49,0.32 z m 17.16,-2.05 c 0,-0.02 -0.04,-0.07 -0.09,-0.11 -0.05,-0.03 -0.09,-0.01 -0.09,0.04 0,0.06 0.04,0.11 0.09,0.11 0.05,0 0.09,-0.02 0.09,-0.04 z m -15.06,-1.77 c 0.18,-0.30 0.36,-0.82 0.46,-1.27 0.08,-0.41 0.23,-1.07 0.32,-1.46 0.09,-0.38 0.22,-1.14 0.28,-1.68 0.06,-0.53 0.18,-1.32 0.28,-1.73 0.23,-1.02 0.29,-1.46 0.20,-1.46 -0.04,0 -0.28,0.74 -0.53,1.65 -0.50,1.86 -1.00,3.67 -1.23,4.48 -0.30,1.06 -0.33,1.21 -0.33,1.53 0,0.31 0.06,0.47 0.18,0.47 0.03,-1.1e-4 0.19,-0.23 0.36,-0.51 z m 9.11,-20.77 c 0.63,-0.34 1.67,-1.07 1.77,-1.25 0.06,-0.12 -0.00,-0.73 -0.10,-0.84 -0.03,-0.03 -0.21,-0.09 -0.39,-0.13 -0.30,-0.06 -0.35,-0.03 -0.45,0.20 -0.06,0.15 -0.21,0.32 -0.35,0.38 -0.20,0.08 -0.22,0.13 -0.12,0.30 0.14,0.26 0.05,0.53 -0.22,0.66 -0.11,0.05 -0.34,0.20 -0.50,0.32 -0.24,0.18 -0.43,0.22 -1.28,0.22 -0.81,0.00 -1.13,-0.04 -1.76,-0.27 -1.41,-0.52 -1.32,-0.50 -1.45,-0.29 -0.09,0.14 -0.09,0.21 0,0.31 0.24,0.25 0.94,0.48 1.52,0.49 0.32,0.00 0.72,0.05 0.87,0.09 0.15,0.04 0.64,0.08 1.09,0.09 0.70,0.01 0.88,-0.02 1.38,-0.29 z m -6.61,-1.21 c 0,-0.05 -0.04,-0.10 -0.09,-0.10 -0.05,0 -0.09,0.04 -0.09,0.10 0,0.05 0.04,0.10 0.09,0.10 0.05,0 0.09,-0.04 0.09,-0.10 z m 6.37,-8.91 c 0,-0.28 -0.12,-0.35 -0.33,-0.18 -0.20,0.16 -0.11,0.39 0.14,0.39 0.11,0 0.18,-0.07 0.18,-0.21 z m -5.71,-0.17 c 0,-0.23 -0.03,-0.26 -0.21,-0.20 -0.32,0.11 -0.42,0.25 -0.26,0.37 0.27,0.19 0.47,0.12 0.47,-0.17 z m 7.23,0.23 c 0,-0.02 -0.04,-0.07 -0.09,-0.11 -0.05,-0.03 -0.09,-0.01 -0.09,0.04 0,0.06 0.04,0.11 0.09,0.11 0.05,0 0.09,-0.02 0.09,-0.04 z"
         style="fill:#f9c286;stroke-width:0.10" />
      <path
         id="path43"
         d="m 61.23,226.31 c -0.20,-0.13 -0.21,-0.61 -0.03,-1.11 0.15,-0.42 0.62,-0.90 0.98,-0.99 0.14,-0.03 0.62,-0.38 1.06,-0.76 0.44,-0.38 0.82,-0.71 0.85,-0.73 0.09,-0.05 0.90,-1.49 1.38,-2.47 0.55,-1.12 0.71,-1.75 0.71,-2.91 6.66e-4,-0.49 0.04,-1.36 0.10,-1.93 0.06,-0.71 0.07,-1.14 0.00,-1.38 -0.05,-0.19 -0.12,-0.95 -0.15,-1.70 -0.11,-2.74 -0.22,-4.52 -0.32,-5.16 -0.05,-0.35 -0.10,-1.54 -0.10,-2.64 -3.81e-4,-1.31 -0.03,-2.07 -0.11,-2.22 -0.14,-0.31 -0.15,-1.69 -0.01,-2.55 0.13,-0.78 0.02,-1.13 -0.30,-1.08 -0.23,0.03 -0.29,0.41 -0.42,2.42 -0.04,0.77 -0.15,1.80 -0.23,2.28 -0.18,1.09 -0.18,2.06 -0.00,3.64 0.15,1.33 0.11,2.60 -0.10,3.53 -0.32,1.37 -0.37,5.02 -0.08,6.43 0.07,0.37 0.11,0.81 0.08,0.98 -0.03,0.20 -0.00,0.35 0.09,0.45 0.18,0.17 0.19,0.83 0.03,1.46 -0.13,0.51 -0.81,1.33 -1.19,1.44 -0.26,0.07 -0.64,0.30 -1.39,0.84 -0.48,0.35 -1.90,1.14 -2.05,1.14 -0.04,0 -0.41,0.17 -0.81,0.39 -0.55,0.30 -0.93,0.42 -1.56,0.50 -0.99,0.12 -1.25,0.06 -1.40,-0.30 -0.24,-0.60 -0.16,-0.74 0.88,-1.64 1.02,-0.87 1.26,-1.05 2.11,-1.61 0.70,-0.46 1.60,-1.48 1.87,-2.15 0.17,-0.42 0.23,-0.78 0.26,-1.48 0.04,-1.27 -0.08,-3.46 -0.30,-5.21 -0.29,-2.34 -0.37,-3.38 -0.31,-4.04 0.12,-1.34 0.04,-4.37 -0.15,-5.52 -0.18,-1.07 -0.57,-3.08 -0.69,-3.64 l -0.12,-0.54 -0.66,0.03 c -0.63,0.02 -1.11,-0.06 -2.36,-0.47 -0.31,-0.10 -0.66,-0.20 -0.77,-0.23 -0.21,-0.05 -0.41,-0.51 -0.41,-0.96 0,-0.13 -0.02,-0.32 -0.05,-0.42 -0.05,-0.15 -0.07,-0.15 -0.21,-0.02 -0.08,0.08 -0.25,0.19 -0.38,0.23 -0.20,0.07 -0.22,0.05 -0.15,-0.17 0.03,-0.14 0.09,-0.48 0.11,-0.75 0.03,-0.38 0.01,-0.51 -0.09,-0.56 -0.20,-0.09 -0.51,0.19 -0.57,0.54 -0.20,1.15 -0.41,2.21 -0.46,2.26 -0.10,0.11 -0.26,-0.06 -0.26,-0.29 0,-0.12 0.06,-0.37 0.13,-0.56 0.07,-0.18 0.15,-0.50 0.17,-0.69 0.03,-0.33 0.01,-0.35 -0.34,-0.44 -0.21,-0.05 -0.45,-0.05 -0.53,-0.01 -0.11,0.06 -0.14,0.01 -0.14,-0.20 0.00,-0.21 -0.04,-0.29 -0.21,-0.32 -0.25,-0.04 -0.26,-0.15 -0.06,-0.50 0.08,-0.14 0.12,-0.31 0.09,-0.37 -0.10,-0.19 -0.93,-0.10 -1.21,0.13 -0.14,0.12 -0.28,0.19 -0.31,0.16 -0.05,-0.06 0.54,-0.63 0.90,-0.85 0.13,-0.07 0.47,-0.40 0.76,-0.72 0.28,-0.32 0.64,-0.66 0.78,-0.76 0.17,-0.11 0.26,-0.27 0.26,-0.45 8e-4,-0.15 0.04,-0.34 0.08,-0.43 0.10,-0.18 -0.03,-0.54 -0.21,-0.54 -0.06,0 -0.30,-0.21 -0.52,-0.46 -0.39,-0.45 -0.39,-0.47 -0.31,-0.95 0.19,-1.06 0.48,-1.96 1.09,-3.39 0.63,-1.51 0.90,-2.33 1.10,-3.47 0.06,-0.34 0.23,-0.89 0.38,-1.21 0.15,-0.32 0.31,-0.78 0.37,-1.00 0.14,-0.66 0.53,-1.88 0.80,-2.53 0.13,-0.32 0.24,-0.79 0.24,-1.03 0.00,-0.51 0.05,-0.74 0.52,-2.59 0.39,-1.52 1.10,-3.25 1.75,-4.24 l 0.40,-0.60 -0.15,-0.51 c -0.08,-0.28 -0.15,-0.72 -0.15,-0.98 0,-0.59 -0.20,-0.62 -0.42,-0.06 -0.40,1.02 -0.59,1.36 -0.83,1.50 -0.24,0.14 -0.27,0.14 -0.49,-0.12 -0.18,-0.22 -0.21,-0.33 -0.14,-0.54 0.06,-0.18 0.03,-0.38 -0.09,-0.72 -0.13,-0.33 -0.18,-0.71 -0.18,-1.31 -0.00,-0.66 -0.03,-0.85 -0.15,-0.91 -0.28,-0.12 -0.62,0.31 -0.85,1.12 -0.33,1.19 -0.46,1.41 -0.82,1.47 -0.35,0.06 -0.64,-0.07 -0.64,-0.28 0,-0.07 0.10,-0.32 0.23,-0.54 0.13,-0.22 0.23,-0.51 0.23,-0.64 0,-0.30 0.26,-1.23 0.45,-1.55 0.21,-0.37 0.06,-0.49 -0.33,-0.26 -0.19,0.11 -0.51,0.23 -0.72,0.26 -0.20,0.03 -0.44,0.14 -0.53,0.24 -0.10,0.10 -0.29,0.16 -0.48,0.14 -0.26,-0.02 -0.32,-0.08 -0.34,-0.34 -0.01,-0.16 0.01,-0.37 0.08,-0.45 0.14,-0.19 0.58,-0.44 0.93,-0.53 0.39,-0.10 0.54,-0.35 0.61,-1.05 0.03,-0.33 0.08,-0.69 0.11,-0.78 0.11,-0.34 -0.24,-0.17 -0.37,0.18 -0.16,0.43 -0.49,0.84 -0.68,0.84 -0.07,0 -0.20,0.12 -0.29,0.27 -0.29,0.50 -0.99,0.24 -0.99,-0.37 0,-0.16 0.15,-0.41 0.43,-0.70 0.33,-0.35 0.46,-0.58 0.57,-1.04 0.17,-0.73 0.17,-0.75 0.00,-0.75 -0.19,0 -0.58,0.42 -0.79,0.86 -0.35,0.75 -1.02,0.35 -0.83,-0.49 0.03,-0.17 0.26,-0.51 0.49,-0.76 0.23,-0.24 0.51,-0.59 0.61,-0.76 0.30,-0.52 0.18,-1.34 -0.18,-1.34 -0.22,0 -0.39,-0.20 -0.39,-0.47 0,-0.11 0.13,-0.49 0.30,-0.84 l 0.30,-0.63 -0.20,-0.16 c -0.16,-0.13 -0.19,-0.23 -0.15,-0.57 0.02,-0.22 0.11,-0.48 0.18,-0.57 0.07,-0.10 0.10,-0.31 0.07,-0.54 -0.06,-0.48 -0.01,-0.54 0.66,-0.87 0.66,-0.32 0.82,-0.53 0.60,-0.82 -0.08,-0.10 -0.17,-0.42 -0.21,-0.69 -0.07,-0.56 0.00,-0.67 0.70,-1.06 0.90,-0.49 1.02,-0.62 1.09,-1.14 0.07,-0.59 0.28,-0.82 0.82,-0.90 0.28,-0.04 0.63,-0.23 1.10,-0.61 0.55,-0.43 0.76,-0.54 1.04,-0.53 0.23,0.00 0.64,-0.13 1.21,-0.43 0.75,-0.39 0.97,-0.45 1.90,-0.54 1.00,-0.09 2.31,-0.06 3.71,0.08 0.44,0.04 0.78,0.02 1.04,-0.07 0.21,-0.08 0.72,-0.14 1.14,-0.14 0.74,0 0.78,0.01 1.47,0.50 0.99,0.70 1.28,0.85 1.59,0.85 0.62,0 2.68,1.35 3.14,2.06 0.11,0.18 0.40,0.43 0.63,0.55 0.49,0.26 0.62,0.60 0.38,1.01 -0.14,0.25 -0.14,0.27 0.18,0.62 0.18,0.19 0.40,0.39 0.47,0.44 0.17,0.11 0.17,0.55 -0.00,0.72 -0.23,0.22 -0.15,0.47 0.23,0.78 0.33,0.26 0.37,0.34 0.35,0.69 -0.01,0.37 0.00,0.41 0.29,0.50 0.40,0.13 1.09,1.05 1.05,1.39 -0.04,0.34 -0.40,0.52 -0.74,0.37 -0.15,-0.06 -0.30,-0.07 -0.34,-0.03 -0.09,0.10 0.40,0.61 0.59,0.61 0.07,0 0.20,0.12 0.29,0.27 0.14,0.24 0.14,0.29 0.01,0.52 -0.07,0.13 -0.31,0.31 -0.53,0.38 -0.31,0.10 -0.39,0.18 -0.39,0.39 0,0.19 0.07,0.28 0.30,0.37 0.89,0.35 0.83,1.20 -0.08,1.20 -0.54,0 -0.64,0.18 -0.50,0.86 0.06,0.29 0.23,0.72 0.39,0.94 0.31,0.45 0.33,0.60 0.12,0.84 -0.18,0.21 -0.48,0.21 -0.80,0.00 -0.13,-0.08 -0.32,-0.15 -0.44,-0.15 -0.40,-0.00 -0.43,0.75 -0.05,1.36 0.51,0.81 0.46,1.13 -0.17,1.13 -0.29,0 -0.40,-0.06 -0.56,-0.32 -0.24,-0.38 -0.41,-0.41 -0.60,-0.09 -0.10,0.16 -0.11,0.29 -0.05,0.42 0.15,0.33 0.10,0.91 -0.10,1.13 -0.15,0.16 -0.23,0.17 -0.42,0.07 -0.13,-0.07 -0.23,-0.21 -0.23,-0.33 0,-0.11 -0.08,-0.38 -0.19,-0.59 -0.16,-0.32 -0.22,-0.36 -0.38,-0.27 -0.09,0.06 -0.24,0.22 -0.33,0.37 -0.15,0.27 -0.13,0.48 0.16,1.66 0.11,0.45 0.11,0.48 -0.12,0.70 -0.13,0.12 -0.32,0.28 -0.41,0.34 -0.15,0.10 -0.14,0.13 0.08,0.45 0.13,0.18 0.24,0.41 0.24,0.51 0,0.09 0.14,0.67 0.31,1.28 0.17,0.61 0.35,1.35 0.38,1.65 0.03,0.29 0.13,0.67 0.20,0.83 0.07,0.15 0.17,0.70 0.22,1.21 0.05,0.51 0.15,1.06 0.22,1.23 0.16,0.36 0.50,1.94 0.58,2.69 0.03,0.29 0.09,0.73 0.13,0.97 0.04,0.23 0.15,0.85 0.23,1.35 0.08,0.50 0.21,1.20 0.29,1.54 0.07,0.34 0.13,0.78 0.13,0.98 0,0.20 0.07,0.67 0.17,1.06 0.29,1.14 0.49,2.19 0.48,2.58 -4.76e-4,0.19 0.13,0.79 0.29,1.32 0.34,1.12 0.33,1.41 -0.02,1.52 -0.14,0.04 -0.38,0.18 -0.54,0.30 -0.25,0.20 -0.27,0.27 -0.23,0.63 0.07,0.53 0.51,1.61 0.89,2.15 0.16,0.23 0.36,0.57 0.44,0.75 0.08,0.17 0.29,0.51 0.46,0.75 0.34,0.45 0.40,0.71 0.17,0.71 -0.07,0 -0.14,-0.04 -0.14,-0.10 0,-0.14 -0.44,-0.14 -0.52,0.00 -0.03,0.06 0.01,0.35 0.09,0.65 0.22,0.77 0.14,1.04 -0.12,0.40 -0.24,-0.58 -0.58,-0.84 -0.82,-0.62 -0.18,0.17 -0.18,0.41 0.00,0.92 0.20,0.56 0.15,0.86 -0.16,0.89 -0.14,0.01 -0.39,0.13 -0.55,0.27 -0.27,0.23 -0.38,0.25 -1.40,0.23 -1.07,-0.01 -1.11,-0.00 -1.44,0.28 -0.49,0.44 -0.70,0.54 -1.11,0.55 -0.72,0.00 -0.95,0.49 -1.02,2.17 -0.09,2.20 -0.06,3.49 0.12,5.32 0.10,1.04 0.17,2.12 0.15,2.39 -0.11,1.26 -0.26,2.28 -0.34,2.28 -0.04,0 -0.07,0.13 -0.07,0.30 0,0.16 -0.04,0.35 -0.09,0.41 -0.05,0.06 -0.11,0.40 -0.14,0.75 -0.06,0.97 -0.12,1.37 -0.24,1.70 -0.06,0.18 -0.09,0.62 -0.06,1.12 0.05,0.93 -0.11,2.40 -0.34,3.02 -0.09,0.24 -0.15,0.71 -0.15,1.14 0,0.60 0.03,0.74 0.19,0.85 0.14,0.10 0.19,0.25 0.19,0.62 0,0.69 -0.26,1.20 -1.01,1.94 -0.35,0.35 -0.73,0.73 -0.84,0.83 -0.18,0.18 -0.70,0.60 -1.61,1.31 -0.26,0.20 -0.88,0.57 -1.38,0.81 -0.86,0.43 -0.94,0.45 -1.85,0.44 -0.52,-0.00 -1.02,-0.05 -1.11,-0.11 z m -5.47,-31.28 c 0.26,-0.64 1.11,-2.07 1.66,-2.79 0.22,-0.29 0.40,-0.65 0.40,-0.78 0,-0.13 0.19,-0.64 0.42,-1.12 0.23,-0.48 0.48,-1.13 0.56,-1.44 0.23,-0.93 0.50,-2.26 0.62,-3.06 0.06,-0.41 0.24,-1.39 0.39,-2.16 0.29,-1.48 0.29,-1.91 -0.01,-1.91 -0.22,0 -0.43,0.34 -0.52,0.86 -0.03,0.20 -0.16,0.74 -0.28,1.19 -0.12,0.44 -0.35,1.32 -0.52,1.95 -0.16,0.62 -0.38,1.41 -0.48,1.73 -0.48,1.53 -0.55,1.91 -0.54,2.75 0.00,0.47 -0.03,0.90 -0.08,0.96 -0.05,0.06 -0.37,0.12 -0.70,0.14 -0.33,0.01 -0.66,0.03 -0.74,0.04 -0.40,0.03 -0.58,1.03 -0.47,2.67 0.02,0.29 0.00,0.75 -0.03,1.00 -0.09,0.63 0.07,0.60 0.34,-0.05 z m 17.68,-3.11 c 0,-0.43 -0.03,-0.60 -0.14,-0.65 -0.20,-0.08 -0.51,0.11 -0.51,0.34 0,0.14 0.53,0.89 0.63,0.89 0.01,0 0.02,-0.26 0.02,-0.58 z m -5.87,-22.63 c 0.76,-0.43 0.92,-0.53 1.38,-0.90 0.30,-0.24 0.31,-0.27 0.25,-0.78 -0.09,-0.78 -0.10,-0.81 -0.61,-0.82 -0.40,-0.00 -0.47,0.02 -0.61,0.30 -0.20,0.40 -0.48,0.40 -0.83,-0.00 -0.31,-0.36 -0.34,-0.60 -0.13,-1.17 0.21,-0.57 0.48,-0.87 1.13,-1.23 0.31,-0.17 0.78,-0.49 1.04,-0.72 0.41,-0.36 0.50,-0.51 0.72,-1.22 0.38,-1.26 0.45,-1.54 0.51,-2.00 0.07,-0.57 -0.25,-1.84 -0.56,-2.22 -0.13,-0.15 -0.23,-0.34 -0.23,-0.41 0,-0.20 -0.38,-1.46 -0.49,-1.62 -0.05,-0.07 -0.21,-0.13 -0.36,-0.13 -0.36,0 -1.12,-0.35 -1.72,-0.80 -0.27,-0.20 -0.69,-0.43 -0.92,-0.50 -0.54,-0.17 -0.87,-0.51 -1.35,-1.43 -0.36,-0.69 -0.56,-0.87 -0.69,-0.62 -0.03,0.06 0.02,0.28 0.13,0.49 0.10,0.21 0.19,0.55 0.19,0.76 0,0.33 -0.04,0.40 -0.33,0.53 -0.38,0.18 -0.52,0.12 -0.94,-0.37 -0.35,-0.42 -0.48,-0.43 -0.29,-0.01 0.20,0.44 0.18,0.60 -0.10,0.86 -0.33,0.30 -0.72,0.28 -1.06,-0.04 -0.15,-0.14 -0.30,-0.27 -0.34,-0.27 -0.03,0 -0.05,0.19 -0.05,0.42 0,0.76 -0.54,1.07 -1.15,0.67 -0.19,-0.12 -0.38,-0.23 -0.41,-0.23 -0.03,0 0.07,0.26 0.23,0.59 0.37,0.75 0.37,1.00 0.03,1.09 -0.45,0.11 -0.48,0.13 -0.65,0.49 -0.11,0.25 -0.17,0.74 -0.20,1.79 -0.04,1.26 -0.02,1.47 0.12,1.73 0.09,0.16 0.24,0.58 0.33,0.92 0.29,1.09 1.31,2.26 2.38,2.71 0.31,0.13 0.59,0.28 0.62,0.33 0.03,0.05 0.10,0.45 0.17,0.88 l 0.11,0.77 -0.36,0.81 c -0.20,0.44 -0.36,0.85 -0.36,0.90 0,0.19 0.92,0.54 1.75,0.67 0.47,0.07 1.34,0.14 1.94,0.14 1.05,0.01 1.09,0.00 1.76,-0.36 z m -3.87,-5.34 c -0.59,-0.34 -0.64,-0.39 -0.50,-0.55 0.19,-0.21 1.12,-0.31 1.47,-0.14 0.21,0.10 0.32,0.09 0.54,-0.03 0.40,-0.23 1.37,-0.11 1.37,0.16 0,0.41 -1.01,0.97 -1.74,0.95 -0.35,-0.00 -0.66,-0.11 -1.14,-0.39 z m 4.08,-0.62 c -0.43,-0.15 -0.88,-0.71 -0.96,-1.21 -0.06,-0.39 0.29,-1.22 0.65,-1.51 0.40,-0.32 1.56,-0.14 2.02,0.31 0.20,0.19 0.26,0.36 0.29,0.83 0.04,0.74 -0.18,1.22 -0.75,1.51 -0.45,0.23 -0.71,0.24 -1.25,0.05 z m -7.30,-0.37 c -0.35,-0.37 -0.39,-0.48 -0.43,-1.03 -0.04,-0.58 -0.02,-0.63 0.28,-0.98 0.59,-0.67 1.53,-0.62 2.14,0.11 0.40,0.49 0.46,0.80 0.26,1.39 -0.23,0.71 -0.52,0.92 -1.25,0.92 -0.57,0 -0.63,-0.02 -1.00,-0.41 z m 4.89,-1.01 c -0.15,-0.18 -0.14,-0.27 0.06,-0.40 0.24,-0.15 0.54,0.15 0.37,0.38 -0.13,0.18 -0.29,0.19 -0.44,0.02 z m -1.40,-0.09 c -0.03,-0.06 -0.00,-0.18 0.05,-0.27 0.14,-0.19 0.39,-0.00 0.31,0.23 -0.06,0.18 -0.27,0.20 -0.36,0.04 z m 2.42,-2.30 c -0.65,-0.30 -0.73,-0.58 -0.26,-0.98 0.44,-0.38 0.95,-0.61 1.37,-0.61 0.40,1e-4 1.41,0.50 1.67,0.83 0.22,0.29 0.14,0.47 -0.33,0.76 -0.56,0.34 -1.70,0.33 -2.44,-0.00 z m 0.68,-0.45 c 0.02,-0.14 0.02,-0.29 -0.00,-0.32 -0.11,-0.12 -0.37,-0.04 -0.54,0.16 -0.15,0.19 -0.15,0.23 -0.03,0.32 0.27,0.19 0.54,0.11 0.59,-0.16 z m 1.59,-0.00 c 0,-0.08 -0.06,-0.16 -0.14,-0.16 -0.07,0 -0.14,0.07 -0.14,0.16 0,0.08 0.06,0.16 0.14,0.16 0.07,0 0.14,-0.07 0.14,-0.16 z m -7.75,0.50 c -0.43,-0.09 -0.72,-0.25 -0.90,-0.49 -0.17,-0.23 0.06,-0.51 0.71,-0.87 0.74,-0.40 1.39,-0.45 2.06,-0.16 0.59,0.25 0.83,0.54 0.83,1.00 0,0.24 -0.05,0.31 -0.35,0.42 -0.44,0.15 -1.84,0.22 -2.35,0.11 z m 0.50,-0.60 c 0.04,-0.44 -0.09,-0.53 -0.49,-0.34 -0.42,0.20 -0.43,0.34 -0.03,0.54 0.40,0.20 0.49,0.16 0.53,-0.20 z m 1.61,-0.02 c -0.04,-0.27 -0.26,-0.31 -0.26,-0.04 0,0.13 0.06,0.22 0.14,0.22 0.08,0 0.13,-0.07 0.11,-0.18 z m 8.39,9.55 c 0,-0.10 -0.06,-0.29 -0.13,-0.40 -0.13,-0.20 -0.14,-0.20 -0.30,-0.01 -0.16,0.19 -0.16,0.20 0.05,0.40 0.28,0.26 0.39,0.26 0.39,0.01 z m -10.18,-0.40 c 0.12,-0.17 0.05,-0.22 -0.44,-0.31 -0.48,-0.09 -0.64,0.09 -0.32,0.37 0.23,0.20 0.60,0.17 0.76,-0.05 z m -9.17,29.12 c -0.11,-0.13 -0.06,-0.44 0.11,-0.70 l 0.18,-0.25 -0.07,0.46 c -0.08,0.50 -0.12,0.60 -0.22,0.49 z m 0.31,-1.15 c 0,-0.08 0.05,-0.21 0.12,-0.27 0.09,-0.09 0.12,-0.06 0.11,0.11 -0.01,0.26 -0.23,0.41 -0.23,0.16 z m 24.84,-0.13 c 0,-0.08 0.04,-0.16 0.09,-0.16 0.05,0 0.09,0.07 0.09,0.16 0,0.08 -0.04,0.16 -0.09,0.16 -0.05,0 -0.09,-0.07 -0.09,-0.16 z m -25.70,-0.65 c 0.28,-0.35 0.54,-0.52 0.60,-0.40 0.02,0.04 -0.15,0.22 -0.39,0.39 l -0.44,0.30 z"
         style="fill:#00FF7F;stroke-width:0.10" />
      <path
         id="path37"
         d="m 61.63,225.94 c 0,-0.20 0.37,-0.60 0.57,-0.60 0.08,0 0.23,-0.07 0.33,-0.15 0.23,-0.20 0.51,-0.21 0.51,-0.01 0,0.21 -0.50,0.80 -0.54,0.63 -0.05,-0.20 -0.24,-0.16 -0.38,0.08 -0.13,0.25 -0.49,0.29 -0.49,0.05 z m 1.64,-0.15 c -0.24,-0.23 -0.19,-0.33 0.15,-0.33 0.17,-5.5e-4 0.31,-0.11 0.46,-0.37 0.21,-0.35 0.72,-0.70 0.84,-0.57 0.03,0.03 -0.01,0.14 -0.10,0.24 -0.19,0.22 -0.13,0.32 0.10,0.17 0.09,-0.06 0.17,-0.23 0.17,-0.38 0,-0.15 0.04,-0.26 0.09,-0.25 0.05,0.01 0.08,0.09 0.06,0.17 -0.03,0.15 0.42,-0.08 0.79,-0.42 0.23,-0.21 0.48,-0.32 0.56,-0.23 0.07,0.08 -0.51,0.78 -0.66,0.78 -0.06,0 -0.22,0.13 -0.36,0.29 -0.19,0.22 -0.33,0.28 -0.59,0.26 -0.25,-0.01 -0.34,0.02 -0.38,0.17 -0.02,0.11 -0.23,0.30 -0.47,0.43 -0.49,0.27 -0.41,0.27 -0.67,0.02 z m -1.73,-0.61 c -0.00,-0.22 0.15,-0.48 0.30,-0.48 0.12,0 0.08,0.18 -0.11,0.45 -0.17,0.24 -0.18,0.24 -0.19,0.03 z m 1.61,-0.34 -0.23,-0.19 0.37,-0.05 c 0.45,-0.06 0.54,-0.28 0.15,-0.37 -0.33,-0.08 -0.37,-0.21 -0.09,-0.38 0.21,-0.13 0.50,-0.05 0.82,0.20 0.27,0.22 0.27,0.33 -0.02,0.33 -0.16,0 -0.23,0.05 -0.23,0.19 0,0.44 -0.37,0.58 -0.76,0.26 z m -1.04,-0.02 c -0.17,-0.12 -0.17,-0.12 0.46,-0.48 0.41,-0.23 0.48,-0.25 0.35,-0.08 -0.08,0.11 -0.16,0.26 -0.16,0.33 0,0.07 -0.10,0.17 -0.24,0.23 -0.29,0.12 -0.24,0.12 -0.41,0.00 z m -4.82,-1.09 c 0.03,-0.14 0.00,-0.21 -0.08,-0.21 -0.17,0 -0.17,-0.15 0.01,-0.32 0.10,-0.10 0.11,-0.17 0.03,-0.28 -0.08,-0.11 -0.03,-0.18 0.23,-0.33 0.18,-0.10 0.36,-0.27 0.39,-0.38 0.04,-0.17 0.07,-0.16 0.28,0.09 0.12,0.15 0.32,0.29 0.44,0.30 0.28,0.02 0.45,0.35 0.26,0.49 -0.07,0.05 -0.23,0.10 -0.34,0.10 -0.11,8.7e-4 -0.22,0.07 -0.25,0.15 -0.05,0.16 -0.73,0.60 -0.92,0.60 -0.06,0 -0.08,-0.09 -0.06,-0.21 z m 0.73,-0.37 c 0,-0.02 0.02,-0.12 0.05,-0.21 0.04,-0.12 0.00,-0.17 -0.13,-0.17 -0.21,0 -0.34,0.16 -0.25,0.32 0.05,0.10 0.33,0.15 0.33,0.06 z m -1.55,0.18 c -0.03,-0.19 0.00,-0.33 0.10,-0.43 0.31,-0.27 0.55,-0.10 0.25,0.18 -0.07,0.07 -0.14,0.22 -0.14,0.33 0,0.31 -0.16,0.24 -0.21,-0.09 z m 8.30,6.5e-4 c -0.18,-0.02 -0.38,-0.10 -0.45,-0.16 -0.23,-0.22 -0.12,-0.76 0.29,-1.49 0.70,-1.21 1.32,-2.52 1.45,-3.10 0.07,-0.30 0.12,-0.95 0.12,-1.45 6.66e-4,-0.49 0.04,-1.36 0.10,-1.93 0.06,-0.71 0.07,-1.14 0.00,-1.38 -0.05,-0.19 -0.12,-0.95 -0.15,-1.70 -0.11,-2.74 -0.22,-4.52 -0.32,-5.16 -0.05,-0.35 -0.10,-1.54 -0.10,-2.64 -3.81e-4,-1.31 -0.03,-2.07 -0.11,-2.22 -0.14,-0.31 -0.15,-1.69 -0.01,-2.55 0.08,-0.52 0.08,-0.73 0.00,-0.89 -0.06,-0.11 -0.08,-0.22 -0.06,-0.25 0.06,-0.07 0.78,0.16 1.75,0.57 0.96,0.40 2.15,0.54 2.55,0.29 0.26,-0.16 0.27,-0.16 0.20,0.07 -0.12,0.46 -0.22,1.77 -0.24,3.07 -0.02,1.80 -0.03,1.63 0.18,3.80 0.10,1.07 0.17,2.17 0.15,2.44 -0.11,1.26 -0.26,2.28 -0.34,2.28 -0.04,0 -0.07,0.13 -0.07,0.30 0,0.16 -0.04,0.35 -0.09,0.41 -0.05,0.06 -0.11,0.40 -0.14,0.75 -0.06,0.97 -0.12,1.37 -0.24,1.70 -0.06,0.18 -0.09,0.62 -0.06,1.12 0.05,0.93 -0.11,2.40 -0.34,3.02 -0.08,0.23 -0.15,0.70 -0.15,1.05 0,0.60 -0.03,0.68 -0.63,1.69 -1.14,1.92 -1.99,2.53 -3.27,2.34 z m 2.49,-0.48 c 0.04,-0.16 0.26,-0.25 0.26,-0.10 0,0.05 -0.06,0.13 -0.15,0.17 -0.09,0.04 -0.13,0.01 -0.11,-0.06 z m -7.92,-0.30 c -0.15,-0.32 -0.11,-0.42 0.16,-0.50 0.14,-0.04 0.36,-0.14 0.48,-0.23 0.14,-0.11 0.25,-0.12 0.31,-0.05 0.06,0.07 0.24,0.02 0.56,-0.14 0.48,-0.26 0.89,-0.33 0.98,-0.15 0.06,0.12 -0.24,0.33 -0.50,0.33 -0.10,0 -0.25,0.09 -0.32,0.21 -0.07,0.11 -0.15,0.18 -0.18,0.15 -0.03,-0.03 -0.13,-0.01 -0.23,0.05 -0.10,0.06 -0.40,0.21 -0.67,0.33 -0.47,0.21 -0.48,0.21 -0.58,0.01 z m 8.56,-0.43 c 0,-0.05 0.04,-0.10 0.09,-0.10 0.05,0 0.09,0.04 0.09,0.10 0,0.05 -0.04,0.10 -0.09,0.10 -0.05,0 -0.09,-0.04 -0.09,-0.10 z m -8.99,-0.10 c 0.03,-0.05 0.07,-0.10 0.10,-0.10 0.02,0 0.04,0.04 0.04,0.10 0,0.05 -0.04,0.10 -0.10,0.10 -0.05,0 -0.07,-0.04 -0.04,-0.10 z m 9.47,-0.30 c 0,-0.11 0.06,-0.24 0.14,-0.28 0.11,-0.04 0.14,-0.00 0.11,0.17 -0.03,0.30 -0.26,0.39 -0.26,0.11 z m -9.28,-0.53 c -0.36,-0.05 -0.56,-0.23 -0.43,-0.38 0.05,-0.05 0.30,-0.23 0.57,-0.39 0.65,-0.38 1.56,-1.43 1.84,-2.11 0.17,-0.42 0.23,-0.78 0.26,-1.48 0.04,-1.27 -0.08,-3.46 -0.30,-5.21 -0.29,-2.34 -0.37,-3.38 -0.31,-4.04 0.07,-0.77 0.07,-2.76 5.71e-4,-3.99 -0.05,-0.93 -0.14,-1.53 -0.40,-2.82 -0.07,-0.38 -0.20,-1.04 -0.27,-1.46 -0.07,-0.41 -0.16,-0.87 -0.19,-1.00 -0.05,-0.22 -0.02,-0.24 0.27,-0.24 0.20,0 0.58,0.15 0.95,0.37 0.54,0.33 0.74,0.38 1.78,0.49 1.24,0.13 1.70,0.09 1.89,-0.16 0.21,-0.29 0.30,-0.17 0.24,0.30 -0.03,0.25 -0.09,1.09 -0.14,1.87 -0.04,0.77 -0.15,1.80 -0.23,2.28 -0.18,1.09 -0.18,2.06 -0.00,3.64 0.15,1.33 0.11,2.60 -0.10,3.53 -0.32,1.39 -0.37,5.00 -0.07,6.48 0.18,0.94 0.08,1.23 -0.56,1.59 -0.25,0.13 -0.59,0.43 -0.76,0.65 -0.31,0.42 -0.44,0.55 -1.08,1.15 -0.82,0.76 -1.90,1.11 -2.92,0.95 z m 9.47,-0.18 c 0,-0.09 -0.00,-0.20 -0.00,-0.24 -0.00,-0.04 0.03,-0.09 0.09,-0.11 0.12,-0.04 0.13,0.37 0.00,0.46 -0.05,0.03 -0.09,-0.00 -0.09,-0.10 z m -5.39,-0.22 c -0.07,-0.21 0.03,-0.38 0.25,-0.38 0.10,0 0.21,-0.07 0.24,-0.16 0.08,-0.26 -0.02,-0.30 -0.28,-0.10 -0.23,0.17 -0.24,0.17 -0.35,-0.10 -0.09,-0.23 -0.08,-0.31 0.04,-0.46 0.12,-0.14 0.20,-0.15 0.37,-0.06 0.37,0.20 0.54,0.24 0.60,0.13 0.09,-0.17 0.23,-0.11 0.23,0.09 0,0.21 -0.37,0.67 -0.54,0.67 -0.05,0 -0.13,0.09 -0.16,0.20 -0.07,0.26 -0.32,0.37 -0.39,0.17 z m -0.92,-0.21 c 0.02,-0.08 0.16,-0.23 0.29,-0.33 0.33,-0.24 0.50,-0.04 0.22,0.26 -0.23,0.26 -0.60,0.31 -0.52,0.07 z m 1.65,-1.15 c 0,-0.05 -0.08,-0.10 -0.19,-0.10 -0.27,0 -0.23,-0.18 0.08,-0.37 0.23,-0.13 0.29,-0.13 0.38,-0.01 0.05,0.08 0.08,0.22 0.04,0.31 -0.06,0.19 -0.32,0.33 -0.32,0.18 z m 5.63,-20.76 c 0,-0.14 0.02,-0.21 0.04,-0.13 0.02,0.07 0.02,0.19 0,0.27 -0.02,0.07 -0.04,0.01 -0.04,-0.13 z m 0.65,-0.04 c 0,-0.09 0.06,-0.17 0.15,-0.17 0.08,0 0.13,0.05 0.11,0.12 -0.05,0.20 -0.26,0.23 -0.26,0.04 z m -2.50,-0.14 c -0.29,-0.02 -0.47,-0.09 -0.51,-0.20 -0.08,-0.24 0.10,-0.40 0.31,-0.26 0.09,0.06 0.35,0.16 0.57,0.22 0.44,0.12 0.64,0.33 0.29,0.30 -0.12,-0.01 -0.42,-0.03 -0.67,-0.06 z m 3.17,-0.30 c 0,-0.09 0.11,-0.21 0.26,-0.27 0.14,-0.06 0.34,-0.20 0.45,-0.31 0.10,-0.10 0.28,-0.23 0.40,-0.27 0.11,-0.04 0.21,-0.11 0.21,-0.16 0,-0.11 0.59,-0.54 0.74,-0.54 0.05,0 0.10,0.07 0.10,0.16 0,0.08 -0.04,0.16 -0.10,0.16 -0.05,0 -0.26,0.10 -0.45,0.24 -0.18,0.13 -0.36,0.24 -0.39,0.24 -0.02,0.00 -0.24,0.20 -0.47,0.46 -0.43,0.46 -0.76,0.59 -0.76,0.29 z m -1.90,-0.35 c 0,-0.39 0.01,-0.41 0.33,-0.42 0.36,-0.01 0.46,0.14 0.11,0.20 -0.15,0.02 -0.22,0.11 -0.24,0.33 -0.04,0.44 -0.20,0.35 -0.20,-0.11 z m -4.47,0.04 c 0,-0.08 0.06,-0.17 0.14,-0.21 0.08,-0.03 0.14,-0.20 0.14,-0.44 0,-0.21 0.04,-0.38 0.09,-0.38 0.05,0 0.09,0.17 0.09,0.38 0,0.20 -0.03,0.38 -0.08,0.38 -0.04,0 -0.10,0.09 -0.13,0.21 -0.05,0.24 -0.25,0.29 -0.25,0.06 z m 9.56,-0.38 c -0.07,-0.14 0.11,-0.43 0.29,-0.43 0.18,0 0.16,0.15 -0.04,0.37 -0.12,0.12 -0.20,0.14 -0.24,0.06 z m -16.38,-0.12 c -0.03,-0.06 -0.02,-0.15 0.02,-0.19 0.13,-0.10 0.09,-0.33 -0.06,-0.45 -0.09,-0.06 -0.10,-0.10 -0.02,-0.10 0.16,-0.00 0.60,0.44 0.54,0.55 -0.02,0.04 0.09,0.13 0.26,0.19 0.29,0.09 0.29,0.10 -0.18,0.11 -0.27,0.00 -0.52,-0.04 -0.55,-0.11 z m 9.76,-0.11 c 8.02e-4,-0.13 0.04,-0.32 0.09,-0.41 0.07,-0.12 0.09,-0.08 0.09,0.18 7.62e-4,0.19 -0.04,0.37 -0.09,0.41 -0.05,0.03 -0.09,-0.04 -0.09,-0.18 z m 6.04,0.13 c -0.03,-0.05 -0.01,-0.13 0.03,-0.16 0.04,-0.03 0.11,-0.01 0.14,0.03 0.03,0.05 0.01,0.13 -0.03,0.16 -0.04,0.03 -0.11,0.01 -0.14,-0.03 z m 1.98,-0.09 c 0.07,-0.26 -0.16,-1.50 -0.41,-2.09 -0.23,-0.55 -0.52,-1.03 -1.06,-1.74 -0.54,-0.70 -0.55,-0.73 -0.55,-1.53 l -0.00,-0.72 0.35,-0.08 c 0.19,-0.04 0.42,-0.07 0.51,-0.06 0.08,0.01 0.29,-0.05 0.44,-0.14 0.37,-0.22 0.39,-0.21 0.39,0.13 3.81e-4,0.37 0.51,1.54 0.97,2.23 0.19,0.28 0.35,0.56 0.35,0.61 0,0.04 0.17,0.32 0.38,0.61 0.40,0.55 0.47,0.80 0.23,0.80 -0.07,0 -0.14,-0.04 -0.14,-0.10 0,-0.14 -0.44,-0.14 -0.52,0.00 -0.03,0.06 0.01,0.35 0.09,0.65 0.22,0.77 0.14,1.04 -0.12,0.40 -0.24,-0.58 -0.58,-0.84 -0.82,-0.62 -0.18,0.17 -0.18,0.34 0.01,0.97 0.15,0.51 0.13,0.87 -0.06,0.87 -0.05,0 -0.08,-0.08 -0.05,-0.19 z m -21.96,0.01 c -0.10,-0.11 -0.07,-0.46 0.07,-0.83 0.07,-0.18 0.15,-0.50 0.17,-0.69 0.03,-0.33 0.01,-0.35 -0.34,-0.44 -0.21,-0.05 -0.45,-0.05 -0.53,-0.01 -0.11,0.06 -0.14,0.01 -0.14,-0.20 0.00,-0.21 -0.04,-0.29 -0.21,-0.32 -0.25,-0.04 -0.26,-0.15 -0.06,-0.50 0.08,-0.14 0.12,-0.31 0.09,-0.37 -0.10,-0.19 -0.93,-0.10 -1.21,0.13 -0.14,0.12 -0.28,0.19 -0.31,0.16 -0.05,-0.06 0.54,-0.63 0.90,-0.85 0.13,-0.07 0.47,-0.40 0.76,-0.72 0.28,-0.32 0.64,-0.66 0.78,-0.76 0.17,-0.11 0.26,-0.27 0.26,-0.45 0.00,-0.52 0.07,-0.54 0.98,-0.39 0.96,0.16 1.09,0.25 0.88,0.62 -0.20,0.35 -0.28,1.22 -0.17,1.96 0.06,0.42 0.05,0.86 -0.02,1.39 -0.12,0.82 -0.16,0.90 -0.51,1.02 -0.20,0.07 -0.22,0.05 -0.15,-0.17 0.03,-0.14 0.09,-0.48 0.11,-0.75 0.03,-0.38 0.01,-0.51 -0.09,-0.56 -0.20,-0.09 -0.51,0.19 -0.57,0.54 -0.42,2.38 -0.45,2.48 -0.66,2.24 z m 7.45,-0.08 c 0,-0.20 0.15,-0.31 0.23,-0.17 0.03,0.06 0.14,0.11 0.25,0.11 0.10,0 0.16,0.04 0.13,0.10 -0.09,0.17 -0.61,0.13 -0.61,-0.04 z m 9.23,0.04 c 0,-0.05 0.07,-0.10 0.16,-0.10 0.09,-3.2e-4 0.28,-0.07 0.43,-0.16 0.30,-0.18 0.44,-0.20 0.44,-0.07 0,0.12 -0.63,0.45 -0.85,0.45 -0.10,0 -0.18,-0.04 -0.18,-0.10 z m 2.92,-0.08 c 0.09,-0.28 0.23,-0.46 0.32,-0.40 0.11,0.08 -0.10,0.59 -0.25,0.59 -0.07,0 -0.10,-0.07 -0.06,-0.19 z m -21.03,-0.09 c -0.11,-0.13 -0.06,-0.44 0.11,-0.70 l 0.18,-0.25 -0.07,0.46 c -0.08,0.50 -0.12,0.60 -0.22,0.49 z m 13.36,-0.09 c -10e-4,-0.11 0.08,-0.33 0.18,-0.48 0.23,-0.34 0.23,-0.16 0,0.32 -0.13,0.28 -0.18,0.32 -0.18,0.16 z m 9.16,-0.02 c 0.01,-0.15 -0.05,-0.18 -0.29,-0.16 -0.24,0.02 -0.30,-0.01 -0.30,-0.16 0,-0.16 0.07,-0.19 0.46,-0.19 0.46,0 0.46,2.2e-4 0.45,0.35 -0.00,0.26 -0.05,0.35 -0.16,0.35 -0.09,0 -0.15,-0.07 -0.14,-0.19 z m -15.64,-0.01 c 0,-0.05 0.04,-0.13 0.09,-0.17 0.05,-0.03 0.09,-0.01 0.09,0.04 0,0.05 -0.04,0.13 -0.09,0.17 -0.05,0.03 -0.09,0.01 -0.09,-0.04 z m 8.00,-0.25 c -0.00,-0.22 0.03,-0.40 0.08,-0.40 0.11,0 0.11,0.29 0,0.59 -0.06,0.17 -0.08,0.13 -0.08,-0.19 z m -7.43,0.13 c 0,-0.05 0.04,-0.10 0.09,-0.10 0.05,0 0.09,0.04 0.09,0.10 0,0.05 -0.04,0.10 -0.09,0.10 -0.05,0 -0.09,-0.04 -0.09,-0.10 z m 0.61,0 c -0.03,-0.05 -0.01,-0.10 0.04,-0.10 0.05,0 0.10,0.04 0.10,0.10 0,0.05 -0.01,0.10 -0.04,0.10 -0.02,0 -0.06,-0.04 -0.10,-0.10 z m 6.04,-0.15 c -0.00,-0.23 0.02,-0.28 0.10,-0.20 0.07,0.08 0.07,0.17 0.00,0.32 -0.08,0.17 -0.10,0.16 -0.10,-0.12 z m -6.28,-0.27 c 0,-0.12 0.04,-0.22 0.09,-0.22 0.05,0 0.09,0.07 0.09,0.15 0,0.08 -0.04,0.18 -0.09,0.22 -0.05,0.03 -0.09,-0.03 -0.09,-0.15 z m 0.59,0.08 c 0.02,-0.07 0.08,-0.14 0.15,-0.17 0.06,-0.02 0.09,0.02 0.05,0.12 -0.06,0.19 -0.26,0.23 -0.20,0.04 z m 12.92,0.02 c 0,-0.05 0.06,-0.10 0.14,-0.10 0.07,0 0.14,0.04 0.14,0.10 0,0.05 -0.06,0.10 -0.14,0.10 -0.07,0 -0.14,-0.04 -0.14,-0.10 z m 0,-0.32 c 0,-0.05 0.04,-0.10 0.10,-0.10 0.05,0 0.07,0.04 0.04,0.10 -0.03,0.05 -0.07,0.10 -0.10,0.10 -0.02,0 -0.04,-0.04 -0.04,-0.10 z m 0.40,-0.13 c 0.02,-0.07 0.09,-0.13 0.16,-0.13 0.06,0 0.14,0.06 0.16,0.13 0.02,0.08 -0.04,0.13 -0.16,0.13 -0.12,0 -0.19,-0.05 -0.16,-0.13 z m -21.44,-0.11 c 0,-0.08 0.05,-0.21 0.12,-0.27 0.09,-0.09 0.12,-0.06 0.11,0.11 -0.01,0.26 -0.23,0.41 -0.23,0.16 z m 4.90,0.03 c 0.03,-0.05 0.07,-0.10 0.10,-0.10 0.02,0 0.04,0.04 0.04,0.10 0,0.05 -0.04,0.10 -0.10,0.10 -0.05,0 -0.07,-0.04 -0.04,-0.10 z m 5.79,-0.20 c 0.02,-0.47 0.15,-0.54 0.15,-0.08 0,0.21 -0.03,0.39 -0.08,0.39 -0.04,0 -0.07,-0.14 -0.07,-0.31 z m 7.63,0.05 c 0.03,-0.09 0.09,-0.17 0.15,-0.17 0.12,0 0.04,0.24 -0.09,0.30 -0.06,0.02 -0.09,-0.02 -0.05,-0.12 z m 6.51,-0.00 c 0,-0.08 0.04,-0.16 0.09,-0.16 0.05,0 0.09,0.07 0.09,0.16 0,0.08 -0.04,0.16 -0.09,0.16 -0.05,0 -0.09,-0.07 -0.09,-0.16 z m -18.99,-0.05 c -0.03,-0.05 0.02,-0.10 0.13,-0.10 0.10,0 0.19,0.04 0.19,0.10 0,0.05 -0.06,0.10 -0.13,0.10 -0.07,0 -0.16,-0.04 -0.19,-0.10 z m 10.64,-0.06 c -0.03,-0.09 -0.00,-0.29 0.05,-0.44 0.08,-0.20 0.15,-0.25 0.30,-0.20 0.12,0.04 0.26,0.00 0.38,-0.12 0.13,-0.14 0.21,-0.16 0.29,-0.06 0.08,0.09 0.06,0.14 -0.07,0.19 -0.47,0.17 -0.62,0.28 -0.70,0.53 -0.10,0.31 -0.17,0.34 -0.25,0.10 z m 4.04,0.09 c 0.06,-0.03 0.15,-0.02 0.18,0.00 0.03,0.03 -0.02,0.06 -0.12,0.05 -0.11,-0.00 -0.13,-0.03 -0.05,-0.06 z m 1.95,-0.09 c -0.03,-0.09 -0.03,-0.19 -0.00,-0.22 0.08,-0.09 0.25,0.06 0.25,0.23 0,0.20 -0.18,0.20 -0.25,-0.01 z m -9.00,-0.29 c -0.02,-0.19 -0.02,-0.39 0.00,-0.45 0.06,-0.12 0.19,0.23 0.20,0.56 0.01,0.37 -0.15,0.28 -0.20,-0.10 z m -14.34,-0.24 c 0.28,-0.35 0.54,-0.52 0.60,-0.40 0.02,0.04 -0.15,0.22 -0.39,0.39 l -0.44,0.30 z m 9.32,0.16 c 0,-0.05 0.04,-0.13 0.09,-0.16 0.05,-0.03 0.09,0.00 0.09,0.10 0,0.09 -0.04,0.16 -0.09,0.16 -0.05,0 -0.09,-0.04 -0.09,-0.10 z m 9.66,-0.00 c -0.07,-0.14 0.11,-0.43 0.29,-0.43 0.18,0 0.16,0.15 -0.04,0.37 -0.12,0.12 -0.20,0.14 -0.24,0.06 z m -2.80,-0.76 c 0,-0.43 0.02,-0.76 0.06,-0.72 0.06,0.07 0.04,1.39 -0.02,1.47 -0.02,0.02 -0.04,-0.31 -0.04,-0.74 z m 0.76,0.41 c -7.62e-4,-0.16 0.04,-0.32 0.09,-0.35 0.12,-0.08 0.12,0.27 0,0.48 -0.07,0.12 -0.09,0.09 -0.09,-0.12 z m -8.26,-0.03 c 0.03,-0.18 0.19,-0.23 0.24,-0.06 0.01,0.05 -0.03,0.13 -0.12,0.17 -0.10,0.04 -0.14,0.01 -0.12,-0.10 z m 12.84,-0.01 c 0.01,-0.10 0.11,-0.21 0.20,-0.23 0.12,-0.02 0.16,0.01 0.14,0.16 -0.01,0.10 -0.11,0.21 -0.20,0.23 -0.12,0.02 -0.16,-0.01 -0.14,-0.16 z M 56.97,194.94 c 0,-0.09 0.05,-0.15 0.11,-0.12 0.17,0.06 0.20,0.30 0.03,0.30 -0.08,0 -0.15,-0.07 -0.15,-0.17 z m 3.97,0.02 c -0.05,-0.17 0.15,-0.50 0.32,-0.50 0.13,0 0.10,0.17 -0.08,0.43 -0.15,0.21 -0.18,0.22 -0.23,0.06 z m 13.40,0.04 c -0.04,-0.07 -0.04,-0.16 -0.01,-0.20 0.08,-0.09 0.17,0.04 0.13,0.20 -0.03,0.11 -0.05,0.11 -0.11,-4.4e-4 z m -15.85,-0.38 c 0,-0.18 0.05,-0.28 0.14,-0.28 0.07,0 0.14,0.06 0.14,0.14 0,0.08 -0.06,0.21 -0.14,0.28 -0.12,0.11 -0.14,0.09 -0.14,-0.14 z m 15.37,-0.05 c -0.08,-0.15 0.12,-0.57 0.23,-0.49 0.05,0.03 0.04,0.15 -0.01,0.30 -0.14,0.32 -0.14,0.32 -0.22,0.19 z m -11.52,-0.11 c -0.03,-0.05 -0.01,-0.10 0.04,-0.10 0.05,0 0.10,0.04 0.10,0.10 0,0.05 -0.01,0.10 -0.04,0.10 -0.02,0 -0.06,-0.04 -0.10,-0.10 z m 6.86,-0.06 c -0.12,-0.36 -0.03,-1.02 0.14,-1.02 0.11,0 0.11,1.05 -1.91e-4,1.13 -0.04,0.03 -0.11,-0.01 -0.14,-0.11 z m -9.81,-0.04 c 0.03,-0.05 0.10,-0.10 0.15,-0.10 0.05,0 0.06,0.04 0.03,0.10 -0.03,0.05 -0.10,0.10 -0.15,0.10 -0.05,0 -0.06,-0.04 -0.03,-0.10 z m 0.48,0.01 c -0.03,-0.06 -0.01,-0.14 0.04,-0.18 0.14,-0.10 0.24,0.03 0.11,0.17 -0.06,0.07 -0.12,0.08 -0.16,0.00 z m -2.53,-0.22 c 0,-0.05 0.04,-0.13 0.09,-0.16 0.05,-0.03 0.09,0.00 0.09,0.10 0,0.09 -0.04,0.16 -0.09,0.16 -0.05,0 -0.09,-0.04 -0.09,-0.10 z m 4.09,-0.02 c -0.00,-0.09 0.06,-0.23 0.13,-0.31 0.18,-0.17 0.18,0.00 0.00,0.27 -0.11,0.17 -0.14,0.18 -0.14,0.03 z m 0.75,-0.15 c 0,-0.09 0.04,-0.13 0.09,-0.10 0.05,0.03 0.07,0.11 0.04,0.16 -0.08,0.15 -0.13,0.12 -0.13,-0.06 z m -4.26,-0.23 c -0.10,-0.25 -0.09,-0.31 0.04,-0.46 0.25,-0.24 0.50,-0.72 0.50,-0.96 0,-0.11 0.06,-0.26 0.14,-0.34 0.11,-0.11 0.14,-0.09 0.14,0.08 0,0.12 -0.04,0.25 -0.09,0.29 -0.05,0.03 -0.09,0.16 -0.09,0.28 0,0.12 -0.08,0.34 -0.19,0.49 -0.10,0.15 -0.19,0.41 -0.19,0.58 0,0.39 -0.10,0.39 -0.26,0.01 z m 1.54,-0.14 c -0.03,-0.06 -0.03,-0.29 0.00,-0.51 0.05,-0.34 0.08,-0.36 0.14,-0.18 0.17,0.49 0.04,1.07 -0.15,0.69 z m 3.00,0.04 c 8.01e-4,-0.04 0.04,-0.16 0.09,-0.25 0.07,-0.14 0.09,-0.13 0.09,0.02 7.61e-4,0.10 -0.04,0.21 -0.09,0.25 -0.05,0.03 -0.09,0.02 -0.09,-0.02 z M 72.62,193.25 c 0.10,-0.39 0.19,-0.45 0.36,-0.26 0.19,0.21 0.20,0.37 0.02,0.37 -0.07,0 -0.20,0.03 -0.29,0.07 -0.13,0.05 -0.14,0.02 -0.09,-0.19 z m -9.32,0.02 c -0.02,-0.05 0.01,-0.23 0.08,-0.40 0.07,-0.17 0.14,-0.37 0.14,-0.44 8.56e-4,-0.18 0.15,-0.17 0.22,0.02 0.02,0.08 -0.00,0.23 -0.08,0.31 -0.07,0.08 -0.13,0.23 -0.13,0.32 0,0.19 -0.15,0.32 -0.23,0.19 z m -5.67,-0.32 c 0.05,-0.12 0.14,-0.25 0.19,-0.29 0.05,-0.03 0.09,-0.13 0.09,-0.22 0,-0.08 0.10,-0.34 0.23,-0.56 0.13,-0.22 0.23,-0.32 0.23,-0.23 -0.00,0.25 -0.59,1.44 -0.74,1.49 -0.10,0.03 -0.10,-4.3e-4 -0.02,-0.17 z m 11.14,-0.01 c 0,-0.11 0.04,-0.24 0.09,-0.27 0.05,-0.03 0.09,0.05 0.09,0.21 0,0.15 -0.04,0.27 -0.09,0.27 -0.05,0 -0.09,-0.09 -0.09,-0.21 z m -1.12,-0.06 c 0.01,-0.10 0.09,-0.21 0.16,-0.24 0.08,-0.03 0.11,0.02 0.09,0.14 -0.01,0.10 -0.09,0.21 -0.16,0.24 -0.08,0.03 -0.11,-0.02 -0.09,-0.14 z m -5.44,-0.64 c 0,-0.08 0.04,-0.16 0.09,-0.16 0.05,0 0.09,0.07 0.09,0.16 0,0.08 -0.04,0.16 -0.09,0.16 -0.05,0 -0.09,-0.07 -0.09,-0.16 z m 4.85,-0.06 c 0,-0.12 0.04,-0.19 0.09,-0.15 0.05,0.03 0.09,0.13 0.09,0.22 0,0.08 -0.04,0.15 -0.09,0.15 -0.05,0 -0.09,-0.10 -0.09,-0.22 z m 0.77,-0.18 c -0.09,-0.21 0.08,-1.17 0.19,-1.05 0.10,0.11 0.08,1.24 -0.02,1.24 -0.05,0 -0.12,-0.08 -0.17,-0.19 z m 1.02,-0.62 c 0,-0.32 0.04,-0.59 0.09,-0.59 0.12,0 0.22,0.68 0.14,0.96 -0.11,0.42 -0.24,0.23 -0.24,-0.37 z m -8.59,-0.05 c -0.02,-0.11 -8.57e-4,-0.42 0.05,-0.67 l 0.10,-0.46 0.05,0.54 c 0.06,0.55 0.02,0.81 -0.10,0.81 -0.04,0 -0.09,-0.09 -0.12,-0.21 z m 11.35,0.10 c 0,-0.05 0.06,-0.10 0.14,-0.10 0.07,0 0.14,0.04 0.14,0.10 0,0.05 -0.06,0.10 -0.14,0.10 -0.07,0 -0.14,-0.04 -0.14,-0.10 z m -10.60,-0.16 c 0.03,-0.08 0.07,-0.16 0.09,-0.16 0.02,0 0.03,0.07 0.03,0.16 0,0.08 -0.04,0.16 -0.09,0.16 -0.05,0 -0.06,-0.07 -0.03,-0.16 z m -2.43,-0.02 c 8.02e-4,-0.04 0.04,-0.16 0.09,-0.25 0.07,-0.14 0.09,-0.13 0.09,0.02 8.01e-4,0.10 -0.04,0.21 -0.09,0.25 -0.05,0.03 -0.09,0.02 -0.09,-0.02 z m 3.87,0.00 c -0.07,-0.08 0.02,-0.71 0.13,-0.84 0.04,-0.05 0.10,-0.02 0.14,0.08 0.06,0.19 -0.17,0.87 -0.27,0.76 z m -5.92,-0.17 c -0.07,-0.21 0.10,-0.72 0.27,-0.80 0.07,-0.03 0.16,-0.18 0.19,-0.32 0.03,-0.14 0.10,-0.23 0.15,-0.20 0.15,0.10 0.10,0.44 -0.09,0.65 -0.10,0.10 -0.19,0.28 -0.19,0.38 0,0.27 -0.26,0.50 -0.33,0.29 z m 13.00,-0.04 c 0.00,-0.12 0.02,-0.15 0.05,-0.06 0.02,0.07 0.02,0.17 -0.00,0.20 -0.03,0.03 -0.05,-0.02 -0.05,-0.14 z M 71.97,190.91 c -0.17,-0.10 -0.24,-0.22 -0.21,-0.32 0.06,-0.18 -0.14,-0.69 -0.36,-0.90 -0.08,-0.07 -0.12,-0.18 -0.09,-0.23 0.02,-0.05 -0.04,-0.08 -0.15,-0.06 -0.19,0.02 -0.21,-0.01 -0.20,-0.61 0.01,-0.97 0.38,-1.27 0.53,-0.43 0.04,0.23 0.01,0.37 -0.08,0.47 -0.21,0.20 -0.02,0.55 0.24,0.46 0.17,-0.05 0.19,-0.02 0.14,0.19 -0.03,0.15 -0.00,0.32 0.07,0.42 0.07,0.09 0.24,0.30 0.37,0.47 0.25,0.31 0.32,0.73 0.12,0.72 -0.06,-0.00 -0.24,-0.07 -0.38,-0.17 z m -10.82,-0.13 c 0,-0.05 0.04,-0.13 0.09,-0.17 0.05,-0.03 0.09,-0.01 0.09,0.04 0,0.05 -0.04,0.13 -0.09,0.17 -0.05,0.03 -0.09,0.01 -0.09,-0.04 z m -1.45,-0.44 c 0.06,-0.58 0.11,-0.70 0.24,-0.55 0.06,0.07 0.05,0.19 -0.04,0.36 -0.08,0.14 -0.17,0.35 -0.19,0.46 -0.02,0.11 -0.02,-0.00 1.82e-4,-0.27 z m -0.82,0.06 c 0,-0.29 0.14,-0.45 0.23,-0.27 0.07,0.14 -0.03,0.54 -0.14,0.54 -0.04,0 -0.08,-0.11 -0.08,-0.26 z m 12.28,-0.01 c 0.00,-0.12 0.02,-0.15 0.05,-0.06 0.02,0.07 0.02,0.17 -0.00,0.20 -0.03,0.03 -0.05,-0.02 -0.05,-0.14 z m -2.03,-0.00 c -0.10,-0.11 -0.07,-0.68 0.03,-0.68 0.05,0 0.09,0.17 0.09,0.38 0,0.39 -0.01,0.43 -0.12,0.30 z m -7.76,-0.16 c 0.00,-0.07 0.10,-0.38 0.23,-0.68 0.24,-0.60 0.32,-0.38 0.10,0.32 -0.12,0.41 -0.34,0.65 -0.33,0.36 z m 8.38,-0.19 c 0,-0.14 0.02,-0.21 0.04,-0.13 0.02,0.07 0.02,0.19 0,0.27 -0.02,0.07 -0.04,0.01 -0.04,-0.13 z m -1.14,-0.10 c 0,-0.14 0.02,-0.21 0.04,-0.13 0.02,0.07 0.02,0.19 0,0.27 -0.02,0.07 -0.04,0.01 -0.04,-0.13 z m 6.21,-0.24 c 0.03,-0.13 0.11,-0.58 0.18,-1.00 0.11,-0.75 0.11,-0.75 0.26,-0.48 0.08,0.14 0.17,0.40 0.20,0.55 0.04,0.22 0.01,0.29 -0.13,0.34 -0.10,0.03 -0.25,0.23 -0.33,0.44 -0.15,0.42 -0.29,0.53 -0.18,0.14 z m 0.90,0.08 c 0,-0.08 0.06,-0.16 0.14,-0.16 0.07,0 0.14,0.07 0.14,0.16 0,0.08 -0.06,0.16 -0.14,0.16 -0.07,0 -0.14,-0.07 -0.14,-0.16 z m -16.40,-0.22 c -0.07,-0.22 0.00,-0.34 0.12,-0.20 0.04,0.05 0.05,0.16 0.01,0.24 -0.06,0.11 -0.09,0.10 -0.14,-0.04 z m -2.27,-0.00 c -0.11,-0.12 -0.07,-0.29 0.12,-0.58 l 0.18,-0.27 0.00,0.27 c 0.00,0.31 -0.20,0.69 -0.30,0.57 z m 11.51,-0.09 c -0.02,-0.08 -0.01,-0.18 0.03,-0.22 0.05,-0.03 0.09,0.03 0.09,0.15 0,0.26 -0.05,0.28 -0.12,0.06 z m 4.12,-0.22 c 0,-0.14 0.04,-0.27 0.09,-0.27 0.05,0 0.09,0.12 0.09,0.27 0,0.14 -0.04,0.27 -0.09,0.27 -0.05,0 -0.09,-0.12 -0.09,-0.27 z m -10.47,0.00 c 0,-0.09 0.04,-0.16 0.09,-0.16 0.05,0 0.09,0.04 0.09,0.10 0,0.05 -0.04,0.13 -0.09,0.16 -0.05,0.03 -0.09,-0.00 -0.09,-0.10 z m 11.18,0.05 c -0.03,-0.05 0.04,-0.31 0.16,-0.57 l 0.21,-0.46 0.03,0.31 c 0.04,0.48 -0.24,1.01 -0.40,0.72 z m -12.61,-0.10 c 0,-0.05 0.04,-0.13 0.09,-0.16 0.05,-0.03 0.09,0.00 0.09,0.10 0,0.09 -0.04,0.16 -0.09,0.16 -0.05,0 -0.09,-0.04 -0.09,-0.10 z m 0.47,-0.00 c 0,-0.05 0.04,-0.10 0.10,-0.10 0.05,0 0.07,0.04 0.04,0.10 -0.03,0.05 -0.07,0.10 -0.10,0.10 -0.02,0 -0.04,-0.04 -0.04,-0.10 z m 3.77,-0.08 c -0.06,-0.12 0.18,-0.53 0.27,-0.43 0.03,0.04 9.52e-4,0.17 -0.07,0.30 -0.07,0.12 -0.16,0.18 -0.19,0.13 z m 0.51,-0.08 c 0,-0.09 0.04,-0.13 0.09,-0.10 0.05,0.03 0.07,0.11 0.04,0.16 -0.08,0.15 -0.13,0.12 -0.13,-0.06 z m 1.96,-0.01 c -0.09,-0.10 -0.07,-0.61 0.03,-0.79 0.08,-0.14 0.09,-0.14 0.09,0.01 7.62e-4,0.09 0.02,0.32 0.06,0.51 0.05,0.31 -0.03,0.44 -0.18,0.26 z m -7.67,-0.31 c 0,-0.15 0.04,-0.24 0.09,-0.21 0.05,0.03 0.09,0.16 0.09,0.27 0,0.11 -0.04,0.21 -0.09,0.21 -0.05,0 -0.09,-0.12 -0.09,-0.27 z m 2.02,0.14 c 0.02,-0.07 0.08,-0.14 0.15,-0.17 0.06,-0.02 0.09,0.02 0.05,0.12 -0.06,0.19 -0.26,0.23 -0.20,0.04 z m 10.25,0.03 c 0,-0.05 0.04,-0.13 0.09,-0.17 0.05,-0.03 0.09,-0.01 0.09,0.04 0,0.05 -0.04,0.13 -0.09,0.17 -0.05,0.03 -0.09,0.01 -0.09,-0.04 z m -9.13,-0.44 c 0,-0.05 0.04,-0.10 0.09,-0.10 0.05,0 0.09,0.04 0.09,0.10 0,0.05 -0.04,0.10 -0.09,0.10 -0.05,0 -0.09,-0.04 -0.09,-0.10 z m -2.37,-0.17 c 0,-0.09 0.05,-0.15 0.11,-0.12 0.17,0.06 0.20,0.30 0.03,0.30 -0.08,0 -0.15,-0.07 -0.15,-0.17 z m 12.38,0 c 0.00,-0.12 0.02,-0.15 0.05,-0.06 0.02,0.07 0.02,0.17 -0.00,0.20 -0.03,0.03 -0.05,-0.02 -0.05,-0.14 z m -13.03,-0.37 c -0.10,-0.35 -0.01,-0.76 0.17,-0.76 0.11,0 0.11,0.76 0.00,0.96 -0.05,0.10 -0.10,0.05 -0.18,-0.20 z m 6.93,0.16 c 0,-0.08 0.04,-0.16 0.09,-0.16 0.05,0 0.09,0.07 0.09,0.16 0,0.08 -0.04,0.16 -0.09,0.16 -0.05,0 -0.09,-0.07 -0.09,-0.16 z m -1.31,-0.18 c 0.05,-0.20 0.26,-0.23 0.26,-0.04 0,0.09 -0.06,0.17 -0.15,0.17 -0.08,0 -0.13,-0.05 -0.11,-0.12 z m -1.00,-0.05 c -0.03,-0.03 -0.06,-0.16 -0.06,-0.27 0,-0.24 0.24,-0.26 0.32,-0.02 0.09,0.27 -0.09,0.48 -0.25,0.29 z m 6.38,-0.22 c 0.04,-0.10 0.07,-0.43 0.06,-0.73 -0.02,-0.65 0.04,-0.98 0.15,-0.84 0.13,0.15 0.12,1.42 -0.00,1.60 -0.16,0.22 -0.31,0.20 -0.21,-0.02 z m 4.12,0.01 c 0.00,-0.12 0.02,-0.15 0.05,-0.06 0.02,0.07 0.02,0.17 -0.00,0.20 -0.03,0.03 -0.05,-0.02 -0.04,-0.14 z m -17.31,-0.45 c 0.12,-0.69 0.29,-0.88 0.21,-0.24 -0.07,0.63 -0.11,0.76 -0.22,0.76 -0.05,0 -0.04,-0.21 0.00,-0.51 z m 8.16,0.34 c 0,-0.09 0.04,-0.13 0.09,-0.10 0.05,0.03 0.09,0.11 0.09,0.16 0,0.05 -0.04,0.10 -0.09,0.10 -0.05,0 -0.09,-0.07 -0.09,-0.16 z m 5.77,-0.78 c 0.00,-0.52 0.02,-1.18 0.02,-1.46 0.00,-0.30 0.05,-0.51 0.11,-0.51 0.07,0 0.08,0.15 0.04,0.48 -0.03,0.29 -0.02,0.57 0.04,0.72 0.07,0.15 0.07,0.25 0.01,0.30 -0.05,0.03 -0.09,0.32 -0.09,0.64 1.9e-4,0.31 -0.03,0.62 -0.08,0.67 -0.04,0.05 -0.07,-0.30 -0.06,-0.85 z m -11.08,0.36 c -0.11,-0.29 -0.06,-0.67 0.11,-0.75 0.09,-0.03 0.11,0.07 0.09,0.43 -0.03,0.59 -0.07,0.66 -0.21,0.32 z m 5.01,0.02 c 0.14,-0.17 0.19,-0.38 0.19,-0.78 0.00,-0.74 0.12,-0.94 0.28,-0.48 0.11,0.30 0.10,0.39 -0.03,0.66 -0.08,0.17 -0.16,0.38 -0.16,0.46 0,0.08 -0.08,0.20 -0.18,0.26 -0.28,0.17 -0.31,0.13 -0.10,-0.12 z m 8.09,-0.03 c 0,-0.08 0.04,-0.16 0.09,-0.16 0.05,0 0.09,0.07 0.09,0.16 0,0.08 -0.04,0.16 -0.09,0.16 -0.05,0 -0.09,-0.07 -0.09,-0.16 z m -5.52,-0.48 c 0,-0.17 0.04,-0.32 0.09,-0.32 0.05,0 0.09,0.14 0.09,0.32 0,0.17 -0.04,0.32 -0.09,0.32 -0.05,0 -0.09,-0.14 -0.09,-0.32 z m -8.18,-0.20 c 0,-0.22 0.04,-0.33 0.14,-0.33 0.07,0 0.14,0.09 0.14,0.20 0,0.11 -0.06,0.26 -0.14,0.33 -0.12,0.11 -0.14,0.08 -0.14,-0.20 z m 4.66,0.20 c 0,-0.05 0.04,-0.10 0.09,-0.10 0.05,0 0.09,0.04 0.09,0.10 0,0.05 -0.04,0.10 -0.09,0.10 -0.05,0 -0.09,-0.04 -0.09,-0.10 z m -6.66,-0.82 c 0,-0.34 0.35,-1.30 0.44,-1.19 0.06,0.07 -0.24,1.26 -0.36,1.42 -0.04,0.06 -0.08,-0.03 -0.08,-0.22 z m 2.32,-0.17 c -0.08,-0.26 -0.00,-2.04 0.09,-2.01 0.11,0.03 0.14,2.02 0.03,2.10 -0.04,0.03 -0.10,-0.00 -0.13,-0.08 z m 10.28,-0.00 c -0.08,-0.32 -0.13,-1.92 -0.05,-1.98 0.04,-0.03 0.10,0.07 0.13,0.24 0.13,0.84 0.15,1.11 0.08,1.11 -0.04,0 -0.06,0.17 -0.04,0.38 0.03,0.36 -0.04,0.52 -0.11,0.24 z m 2.57,-0.01 c 0.03,-0.09 0.09,-0.17 0.15,-0.17 0.12,0 0.04,0.24 -0.09,0.30 -0.06,0.02 -0.09,-0.02 -0.05,-0.12 z m 1.28,-0.12 c 0.00,-0.12 0.02,-0.15 0.05,-0.06 0.02,0.07 0.02,0.17 -0.00,0.20 -0.03,0.03 -0.05,-0.02 -0.04,-0.14 z m -9.52,-0.20 c 0,-0.09 0.04,-0.16 0.09,-0.16 0.05,0 0.09,0.04 0.09,0.10 0,0.05 -0.04,0.13 -0.09,0.16 -0.05,0.03 -0.09,-0.00 -0.09,-0.10 z m 0.90,-0.23 c 0,-0.14 0.03,-0.26 0.07,-0.26 0.03,0 0.07,0.09 0.07,0.21 0,0.11 -0.03,0.23 -0.07,0.26 -0.03,0.02 -0.07,-0.06 -0.07,-0.21 z m 0.71,-0.26 c 0,-0.12 0.06,-0.21 0.14,-0.21 0.07,0 0.14,0.09 0.14,0.21 0,0.12 -0.06,0.21 -0.14,0.21 -0.07,0 -0.14,-0.09 -0.14,-0.21 z m 4.52,-0.02 c -0.02,-0.07 -0.00,-0.30 0.04,-0.51 l 0.08,-0.38 0.00,0.51 c 0.00,0.49 -0.04,0.66 -0.13,0.38 z m -6.76,-0.33 c -0.03,-0.10 -0.01,-0.24 0.03,-0.32 0.05,-0.07 0.12,-0.32 0.16,-0.54 0.03,-0.23 0.11,-0.39 0.17,-0.36 0.15,0.06 0.08,0.67 -0.12,1.07 -0.15,0.28 -0.19,0.31 -0.24,0.16 z m 7.92,-0.01 c -0.02,-0.08 -0.01,-0.18 0.03,-0.22 0.05,-0.03 0.09,0.03 0.09,0.15 0,0.26 -0.05,0.28 -0.12,0.06 z m 2.09,-0.03 c -0.04,-0.13 -0.05,-0.28 -0.02,-0.31 0.09,-0.11 0.16,0.05 0.13,0.31 l -0.03,0.25 z m -2.46,-0.30 c -0.10,-0.11 -0.07,-0.67 0.03,-0.75 0.14,-0.10 0.45,0.25 0.31,0.36 -0.05,0.04 -0.14,0.16 -0.19,0.27 -0.05,0.10 -0.12,0.15 -0.15,0.11 z m -8.70,-0.24 c 0.01,-0.14 0.08,-0.28 0.14,-0.30 0.16,-0.06 0.14,0.10 -0.02,0.36 -0.14,0.20 -0.14,0.20 -0.11,-0.05 z m -2.53,-0.47 c -0.11,-0.43 -0.14,-0.79 -0.09,-1.11 0.05,-0.32 0.08,-0.35 0.24,-0.26 0.13,0.08 0.15,0.15 0.09,0.29 -0.05,0.11 -0.05,0.26 0.00,0.38 0.05,0.10 0.06,0.33 0.03,0.51 -0.06,0.32 -0.21,0.42 -0.27,0.18 z m 9.86,-0.11 c -0.13,-0.37 -0.14,-0.61 -0.01,-0.61 0.06,0 0.09,-0.36 0.08,-1.00 -0.01,-1.13 0.03,-1.38 0.30,-1.38 0.21,0 0.21,0.00 0.03,0.39 -0.11,0.24 -0.13,0.50 -0.08,1.20 0.03,0.55 0.02,0.94 -0.03,1.03 -0.05,0.07 -0.11,0.25 -0.13,0.40 l -0.03,0.27 z m -11.73,-0.34 c 0.08,-0.26 0.18,-0.48 0.22,-0.48 0.10,0 0.08,0.14 -0.07,0.58 -0.20,0.56 -0.33,0.48 -0.15,-0.09 z m 12.06,0.21 c 0.03,-0.08 0.09,-0.16 0.13,-0.16 0.04,0 0.08,0.07 0.08,0.16 0,0.08 -0.06,0.16 -0.13,0.16 -0.08,0 -0.11,-0.06 -0.08,-0.16 z m -7.32,-0.24 c -0.07,-0.14 0.01,-0.46 0.13,-0.46 0.09,0 0.09,0.08 -4.76e-4,0.37 -0.04,0.13 -0.09,0.16 -0.13,0.09 z m 10.47,-0.29 c -0.05,-0.16 0.00,-0.28 0.14,-0.28 0.04,0 0.07,0.09 0.07,0.21 0,0.24 -0.14,0.29 -0.22,0.06 z m -9.90,-0.25 c -0.03,-0.11 -0.00,-0.35 0.05,-0.52 l 0.11,-0.31 0.03,0.42 c 0.03,0.46 -0.11,0.76 -0.21,0.41 z m 8.08,-0.02 c -0.03,-0.07 -0.02,-0.17 0.02,-0.23 0.12,-0.14 0.22,0.04 0.12,0.22 -0.05,0.10 -0.09,0.11 -0.14,0.01 z m -10.23,-0.60 c 0,-0.09 0.04,-0.13 0.09,-0.10 0.05,0.03 0.07,0.11 0.04,0.16 -0.08,0.15 -0.13,0.12 -0.13,-0.06 z m 1.46,-0.18 c 0.03,-0.13 0.05,-0.30 0.05,-0.38 0.00,-0.22 0.16,-0.15 0.22,0.10 0.05,0.24 -0.07,0.52 -0.24,0.52 -0.05,0 -0.06,-0.11 -0.03,-0.24 z m -4.47,0.01 c 0.02,-0.08 0.14,-0.47 0.25,-0.87 0.19,-0.67 0.41,-1.06 0.53,-0.92 0.09,0.11 -0.15,0.94 -0.39,1.26 -0.12,0.17 -0.23,0.37 -0.23,0.43 0,0.06 -0.04,0.14 -0.10,0.18 -0.06,0.04 -0.08,0.01 -0.05,-0.07 z m 2.40,-0.08 c -0.03,-0.11 -0.01,-0.31 0.03,-0.46 0.08,-0.22 0.09,-0.20 0.09,0.20 0.00,0.49 -0.04,0.58 -0.13,0.26 z m -1.70,-0.09 c -0.02,-0.04 0.05,-0.21 0.18,-0.38 0.16,-0.21 0.22,-0.25 0.22,-0.12 0,0.38 -0.28,0.74 -0.41,0.51 z m 0.94,-0.26 c 0.11,-0.74 0.26,-0.87 0.29,-0.25 0.01,0.28 -0.02,0.40 -0.16,0.49 -0.17,0.10 -0.18,0.08 -0.13,-0.24 z m 9.57,-0.19 c 0,-0.14 0.02,-0.21 0.04,-0.13 0.02,0.07 0.02,0.19 0,0.27 -0.02,0.07 -0.04,0.01 -0.04,-0.13 z m -3.20,-0.32 c -0.07,-0.12 0.01,-0.32 0.14,-0.32 0.11,0 0.11,0.29 9.61e-4,0.37 -0.04,0.03 -0.11,0.01 -0.14,-0.04 z m -10.08,-0.13 c 0.03,-0.07 0.17,-0.30 0.31,-0.51 0.32,-0.50 0.48,-0.83 0.48,-1.01 0,-0.22 0.25,-0.43 0.33,-0.28 0.03,0.06 -0.05,0.31 -0.20,0.55 -0.14,0.23 -0.33,0.56 -0.40,0.72 -0.16,0.37 -0.39,0.67 -0.50,0.67 -0.04,0 -0.05,-0.06 -0.01,-0.13 z m 12.06,-0.03 c 0.03,-0.09 0.05,-0.21 0.05,-0.27 0,-0.05 0.06,-0.09 0.14,-0.09 0.17,0 0.17,0.10 0.01,0.35 -0.15,0.23 -0.28,0.24 -0.21,0.01 z m -12.44,-0.26 c 0.15,-0.30 0.31,-0.42 0.31,-0.24 0,0.14 -0.29,0.56 -0.39,0.56 -0.05,0 -0.01,-0.14 0.07,-0.32 z m 6.79,0.15 c 0.00,-0.12 0.02,-0.15 0.05,-0.06 0.02,0.07 0.02,0.17 -0.00,0.20 -0.03,0.03 -0.05,-0.02 -0.05,-0.14 z m 0.61,0.04 c -0.03,-0.1 -0.00,-0.29 0.06,-0.43 l 0.12,-0.25 0.03,0.24 c 0.01,0.13 -0.01,0.32 -0.06,0.43 -0.08,0.17 -0.10,0.17 -0.15,0.01 z m 7.54,0.00 c -0.15,-0.1 -0.15,-0.12 0.04,-0.42 0.27,-0.42 0.40,-0.40 0.32,0.02 -0.07,0.44 -0.15,0.53 -0.36,0.39 z m -3.68,-0.14 c 0,-0.09 0.04,-0.16 0.09,-0.16 0.05,0 0.09,0.04 0.09,0.10 0,0.05 -0.04,0.13 -0.09,0.16 -0.05,0.03 -0.09,-0.00 -0.09,-0.10 z m -5.33,-0.06 c 0,-0.05 0.04,-0.10 0.09,-0.10 0.05,0 0.09,0.04 0.09,0.10 0,0.05 -0.04,0.10 -0.09,0.10 -0.05,0 -0.09,-0.04 -0.09,-0.10 z m 7.66,-0.21 c -0.03,-0.05 -0.01,-0.10 0.04,-0.10 0.05,0 0.10,0.04 0.10,0.10 0,0.05 -0.01,0.10 -0.04,0.10 -0.02,0 -0.06,-0.04 -0.10,-0.10 z m 3.72,0.01 c -0.04,-0.07 -0.04,-0.16 -0.01,-0.20 0.08,-0.09 0.17,0.04 0.13,0.20 -0.03,0.11 -0.05,0.11 -0.11,-4.3e-4 z m -1.31,-0.08 c -0.08,-0.14 0.17,-0.90 0.31,-0.90 0.14,0 0.11,0.28 -0.04,0.42 -0.07,0.07 -0.15,0.23 -0.16,0.36 -0.01,0.14 -0.05,0.19 -0.10,0.11 z m -12.52,-0.20 c 0.04,-0.23 0.21,-0.25 0.25,-0.02 0.02,0.11 -0.02,0.19 -0.12,0.19 -0.09,0 -0.14,-0.07 -0.12,-0.16 z m 8.07,-0.09 c 0,-0.08 0.04,-0.18 0.09,-0.22 0.05,-0.03 0.09,-0.17 0.09,-0.30 0,-0.15 0.03,-0.19 0.09,-0.12 0.06,0.07 0.04,0.22 -0.05,0.45 -0.16,0.37 -0.23,0.43 -0.23,0.18 z m -11.70,-0.10 c 0,-0.08 0.04,-0.19 0.09,-0.23 0.05,-0.03 0.09,0.00 0.09,0.09 0,0.08 -0.04,0.19 -0.09,0.23 -0.05,0.03 -0.09,-0.00 -0.09,-0.09 z m 6.14,-0.02 c -0.08,-0.26 -0.06,-1.02 0.02,-1.02 0.04,0 0.10,0.24 0.11,0.55 0.03,0.55 -0.04,0.78 -0.14,0.46 z m 4.98,0.07 c 0,-0.05 0.04,-0.13 0.09,-0.17 0.05,-0.03 0.09,-0.01 0.09,0.04 0,0.05 -0.04,0.13 -0.09,0.17 -0.05,0.03 -0.09,0.01 -0.09,-0.04 z m -3.85,-0.25 c 0.09,-0.36 0.21,-0.47 0.28,-0.26 0.08,0.25 -0.01,0.50 -0.20,0.50 -0.11,0 -0.13,-0.06 -0.08,-0.24 z m 0.86,0.04 c -0.08,-0.16 0.11,-1.10 0.24,-1.10 0.12,0 0.09,0.54 -0.04,0.92 -0.08,0.22 -0.14,0.28 -0.19,0.18 z m -7.37,-0.44 c 0.12,-0.42 0.36,-0.66 0.36,-0.37 0,0.23 -0.25,0.68 -0.38,0.68 -0.04,0 -0.04,-0.14 0.01,-0.31 z m 11.66,0.25 c -0.07,-0.08 0.00,-0.25 0.12,-0.25 0.04,0 0.08,0.07 0.08,0.16 0,0.16 -0.11,0.21 -0.21,0.09 z m 2.00,-0.10 c -0.03,-0.04 -0.07,-0.25 -0.07,-0.46 0,-0.27 0.02,-0.35 0.10,-0.26 0.05,0.06 0.08,0.27 0.07,0.46 -0.01,0.19 -0.06,0.31 -0.10,0.26 z m 0.70,-0.13 c 0.01,-0.10 0.09,-0.18 0.17,-0.18 0.07,-0.00 0.19,-0.04 0.26,-0.09 0.09,-0.06 0.11,-0.02 0.09,0.16 -0.02,0.19 -0.09,0.26 -0.29,0.27 -0.20,0.01 -0.26,-0.01 -0.23,-0.16 z m -5.77,-0.35 c -0.08,-0.61 -0.04,-1.10 0.10,-1.16 0.18,-0.06 0.23,0.63 0.09,1.16 l -0.13,0.48 z m 4.29,0.12 c -0.16,-0.18 -0.16,-0.21 -0.00,-0.58 0.08,-0.21 0.22,-0.41 0.30,-0.45 0.11,-0.05 0.12,0.02 0.07,0.44 -0.03,0.27 -0.06,0.57 -0.06,0.65 0,0.19 -0.10,0.17 -0.31,-0.06 z m -6.79,-0.17 c -0.03,-0.09 -0.03,-0.19 -0.00,-0.23 0.09,-0.10 0.34,0.05 0.34,0.23 0,0.21 -0.27,0.21 -0.34,-10e-4 z m -5.21,-0.47 c -0.02,-0.05 0.01,-0.15 0.08,-0.23 0.11,-0.10 0.14,-0.10 0.14,0.03 0,0.20 -0.15,0.33 -0.23,0.19 z m 6.71,-0.07 c 0.00,-0.12 0.02,-0.15 0.05,-0.06 0.02,0.07 0.02,0.17 -0.00,0.20 -0.03,0.03 -0.05,-0.02 -0.05,-0.14 z m 8.50,-0.10 c -0.06,-0.30 -0.00,-0.43 0.14,-0.32 0.12,0.09 0.13,0.60 0.00,0.60 -0.05,0 -0.12,-0.12 -0.15,-0.27 z m -13.40,-0.00 c -0.08,-0.24 -0.07,-0.37 0.02,-0.37 0.11,0 0.20,0.42 0.10,0.48 -0.04,0.02 -0.10,-0.02 -0.13,-0.11 z m 4.13,-0.04 c 0.10,-0.22 0.20,-0.27 0.31,-0.14 0.08,0.09 -0.11,0.36 -0.28,0.36 -0.10,0 -0.11,-0.04 -0.03,-0.21 z m 4.29,0.04 c 0.01,-0.10 0.09,-0.21 0.16,-0.24 0.08,-0.03 0.11,0.02 0.09,0.14 -0.01,0.10 -0.09,0.21 -0.16,0.24 -0.08,0.03 -0.11,-0.02 -0.09,-0.14 z m 0.55,0.09 c 8.01e-4,-0.04 0.04,-0.16 0.09,-0.25 0.07,-0.14 0.09,-0.13 0.09,0.02 7.61e-4,0.10 -0.04,0.21 -0.09,0.25 -0.05,0.03 -0.09,0.02 -0.09,-0.02 z m -1.03,-0.30 c 0.05,-0.14 0.14,-0.24 0.18,-0.21 0.09,0.06 -0.07,0.47 -0.20,0.47 -0.05,0 -0.04,-0.11 0.01,-0.26 z m 1.69,0.05 c 0,-0.28 0.09,-0.55 0.20,-0.55 0.09,0 0.11,0.33 0.02,0.58 -0.08,0.23 -0.22,0.21 -0.22,-0.03 z m -12.18,-0.38 c 0,-0.09 0.04,-0.16 0.09,-0.16 0.05,0 0.09,0.04 0.09,0.10 0,0.05 -0.04,0.13 -0.09,0.16 -0.05,0.03 -0.09,-0.00 -0.09,-0.10 z m 9.86,-0.11 c 0.03,-0.08 0.09,-0.13 0.14,-0.10 0.09,0.07 0.01,0.26 -0.10,0.26 -0.04,0 -0.06,-0.07 -0.03,-0.16 z m -2.82,-0.05 c 0,-0.05 0.05,-0.10 0.11,-0.11 0.06,-8.7e-4 0.22,-0.02 0.35,-0.06 0.17,-0.04 0.15,-0.01 -0.08,0.11 -0.37,0.19 -0.39,0.20 -0.39,0.06 z m 6.28,-0.05 c 0,-0.08 0.04,-0.16 0.09,-0.16 0.05,0 0.09,0.07 0.09,0.16 0,0.08 -0.04,0.16 -0.09,0.16 -0.05,0 -0.09,-0.07 -0.09,-0.16 z m -0.89,-0.23 c -0.06,-0.19 0.18,-0.56 0.28,-0.44 0.08,0.09 -0.03,0.62 -0.14,0.62 -0.04,0 -0.11,-0.08 -0.14,-0.18 z m -9.47,-0.13 c 0,-0.05 0.04,-0.13 0.09,-0.17 0.05,-0.03 0.09,-0.01 0.09,0.04 0,0.05 -0.04,0.13 -0.09,0.17 -0.05,0.03 -0.09,0.01 -0.09,-0.04 z m 1.20,-0.14 c -0.03,-0.13 -0.03,-0.26 -0.00,-0.29 0.07,-0.08 0.32,0.33 0.26,0.44 -0.08,0.16 -0.20,0.09 -0.26,-0.14 z m 4.17,0.13 c -0.09,-0.18 0.03,-0.67 0.17,-0.62 0.14,0.05 0.15,0.64 0.00,0.70 -0.06,0.02 -0.13,-0.01 -0.17,-0.07 z m 6.04,-0.11 c 0,-0.06 0.04,-0.08 0.09,-0.04 0.05,0.03 0.09,0.08 0.09,0.11 0,0.02 -0.04,0.04 -0.09,0.04 -0.05,0 -0.09,-0.05 -0.09,-0.11 z m 0.99,-0.03 c -0.07,-0.20 0.30,-0.76 0.44,-0.65 0.12,0.08 0.09,0.17 -0.15,0.52 -0.20,0.28 -0.23,0.29 -0.29,0.13 z m -4.89,-0.07 c 0,-0.06 0.04,-0.08 0.09,-0.04 0.05,0.03 0.09,0.08 0.09,0.11 0,0.02 -0.04,0.04 -0.09,0.04 -0.05,0 -0.09,-0.05 -0.09,-0.11 z m 1.61,0.00 c 0,-0.05 0.04,-0.10 0.09,-0.10 0.05,0 0.09,0.04 0.09,0.10 0,0.05 -0.04,0.10 -0.09,0.10 -0.05,0 -0.09,-0.04 -0.09,-0.10 z m -8.56,-0.38 c 0,-0.40 0.09,-0.47 0.28,-0.22 0.14,0.19 0.04,0.60 -0.14,0.60 -0.09,0 -0.13,-0.12 -0.13,-0.38 z m 7.71,-0.03 c 0,-0.33 0.15,-0.56 0.36,-0.56 0.09,0 0.11,0.07 0.06,0.29 -0.12,0.58 -0.43,0.77 -0.43,0.26 z m -9.02,-0.08 c 0.01,-0.10 0.09,-0.21 0.16,-0.24 0.08,-0.03 0.11,0.02 0.09,0.14 -0.01,0.10 -0.09,0.21 -0.16,0.24 -0.08,0.03 -0.11,-0.02 -0.09,-0.14 z m 0.65,0.00 c 0,-0.08 0.04,-0.16 0.09,-0.16 0.05,0 0.09,0.07 0.09,0.16 0,0.08 -0.04,0.16 -0.09,0.16 -0.05,0 -0.09,-0.07 -0.09,-0.16 z m 1.52,0.07 c 0,-0.17 0.11,-0.23 0.77,-0.33 0.66,-0.10 0.94,0.01 0.50,0.21 -0.41,0.18 -1.27,0.26 -1.27,0.12 z m 3.04,-0.13 c 0,-0.05 0.04,-0.10 0.10,-0.10 0.05,0 0.07,0.04 0.04,0.10 -0.03,0.05 -0.07,0.10 -0.10,0.10 -0.02,0 -0.04,-0.04 -0.04,-0.10 z m 7.14,-0.27 c 0.06,-0.09 0.14,-0.14 0.16,-0.11 0.06,0.07 -0.06,0.28 -0.18,0.28 -0.06,0 -0.05,-0.06 0.01,-0.16 z m -14.37,-0.09 c 0,-0.08 0.05,-0.17 0.13,-0.20 0.09,-0.04 0.11,0.00 0.08,0.15 -0.05,0.24 -0.21,0.28 -0.21,0.05 z m 5.90,0.10 c 0,-0.07 1.14,-0.92 1.24,-0.92 0.04,0 0.08,0.07 0.08,0.16 0,0.16 -0.46,0.49 -0.69,0.49 -0.07,0 -0.18,0.07 -0.25,0.16 -0.10,0.15 -0.38,0.23 -0.38,0.11 z m 1.81,-0.19 c -0.00,-0.16 0.03,-0.29 0.08,-0.29 0.16,0 0.19,0.18 0.05,0.39 -0.12,0.19 -0.13,0.19 -0.13,-0.09 z m -5.90,0.02 c 0,-0.05 0.04,-0.10 0.09,-0.10 0.05,0 0.09,0.04 0.09,0.10 0,0.05 -0.04,0.10 -0.09,0.10 -0.05,0 -0.09,-0.04 -0.09,-0.10 z m 9.92,-0.05 c -0.17,-0.22 -0.14,-0.29 0.07,-0.16 0.10,0.06 0.19,0.16 0.19,0.22 0,0.14 -0.12,0.12 -0.26,-0.05 z m 1.08,-0.09 c -0.03,-0.14 -0.02,-0.38 0.01,-0.51 0.07,-0.23 0.08,-0.22 0.19,0.12 0.09,0.29 0.08,0.39 -0.01,0.51 -0.11,0.12 -0.14,0.11 -0.19,-0.12 z m 2.12,0.08 c 0,-0.09 0.04,-0.27 0.10,-0.39 0.05,-0.12 0.11,-0.39 0.11,-0.60 0.00,-0.21 0.07,-0.40 0.14,-0.43 0.10,-0.03 0.11,0.03 0.07,0.31 -0.02,0.20 -0.08,0.57 -0.11,0.82 -0.03,0.29 -0.11,0.46 -0.19,0.46 -0.07,0 -0.13,-0.07 -0.13,-0.17 z m -13.92,-0.23 c -0.02,-0.04 -0.09,-0.26 -0.15,-0.48 -0.09,-0.33 -0.08,-0.45 0.03,-0.73 0.08,-0.18 0.16,-0.33 0.19,-0.33 0.02,0 0.03,0.25 0.02,0.57 -0.00,0.31 0.01,0.68 0.06,0.81 0.07,0.22 -0.06,0.36 -0.16,0.16 z m 12.68,-0.40 c 0,-0.26 0.04,-0.48 0.09,-0.48 0.05,0 0.06,-0.06 0.04,-0.15 -0.06,-0.20 0.14,-0.33 0.27,-0.17 0.08,0.09 0.07,0.15 -0.05,0.23 -0.11,0.07 -0.16,0.24 -0.16,0.59 0,0.26 -0.04,0.48 -0.09,0.48 -0.05,0 -0.09,-0.22 -0.09,-0.48 z m -10.28,0.11 c 0,-0.31 0.17,-0.47 0.28,-0.27 0.08,0.15 -0.05,0.53 -0.19,0.53 -0.05,0 -0.09,-0.11 -0.09,-0.26 z m 2.19,-0.08 c -0.00,-0.10 0.03,-0.19 0.07,-0.19 0.04,0 0.12,-0.11 0.18,-0.24 0.06,-0.14 0.10,-0.18 0.10,-0.08 0.00,0.08 -0.07,0.28 -0.18,0.43 -0.15,0.22 -0.18,0.23 -0.18,0.08 z m 0.49,0.02 c 0.02,-0.07 0.09,-0.16 0.16,-0.19 0.07,-0.02 0.10,0.01 0.08,0.09 -0.02,0.07 -0.09,0.16 -0.16,0.19 -0.07,0.02 -0.10,-0.01 -0.08,-0.09 z m 1.40,-0.10 c 0,-0.11 0.04,-0.21 0.09,-0.21 0.05,0 0.09,0.09 0.09,0.21 0,0.11 -0.04,0.21 -0.09,0.21 -0.05,0 -0.09,-0.09 -0.09,-0.21 z m 3.25,0.08 c 0.02,-0.07 0.08,-0.14 0.15,-0.17 0.06,-0.02 0.09,0.02 0.05,0.12 -0.06,0.19 -0.26,0.23 -0.20,0.04 z m -9.12,-0.10 c -0.04,-0.07 0.02,-0.20 0.15,-0.32 0.12,-0.10 0.34,-0.30 0.49,-0.43 0.14,-0.12 0.28,-0.20 0.31,-0.17 0.06,0.07 -0.14,0.51 -0.24,0.51 -0.04,0 -0.21,0.12 -0.37,0.27 -0.20,0.19 -0.30,0.23 -0.35,0.14 z m 1.05,-0.20 c 0.03,-0.05 0.12,-0.10 0.20,-0.10 0.07,0 0.11,0.04 0.08,0.10 -0.03,0.05 -0.12,0.10 -0.20,0.10 -0.07,0 -0.11,-0.04 -0.08,-0.10 z m 6.03,-0.26 c 0.12,-0.15 0.29,-0.28 0.36,-0.28 0.23,0 0.06,0.25 -0.26,0.41 l -0.32,0.15 z m 1.53,0.04 c 0,-0.24 0.07,-0.26 0.28,-0.10 0.12,0.09 0.12,0.11 0,0.21 -0.21,0.16 -0.28,0.13 -0.28,-0.10 z m -3.99,-0.05 c -0.06,-0.09 -0.09,-0.19 -0.06,-0.23 0.09,-0.11 0.35,0.05 0.35,0.23 0,0.21 -0.13,0.21 -0.28,7.6e-4 z m 1.68,0.09 c -0.10,-0.12 -0.06,-0.25 0.08,-0.25 0.07,0 0.14,0.04 0.14,0.10 0,0.13 -0.14,0.23 -0.22,0.14 z m 5.17,-0.25 c 0,-0.12 0.04,-0.19 0.09,-0.15 0.05,0.03 0.09,0.13 0.09,0.22 0,0.08 -0.04,0.15 -0.09,0.15 -0.05,0 -0.09,-0.10 -0.09,-0.22 z m 1.42,0.12 c 0,-0.05 0.04,-0.13 0.09,-0.16 0.05,-0.03 0.09,0.00 0.09,0.10 0,0.09 -0.04,0.16 -0.09,0.16 -0.05,0 -0.09,-0.04 -0.09,-0.10 z m -10.80,-0.33 c 0.03,-0.14 0.12,-0.34 0.20,-0.43 0.22,-0.26 0.16,0.08 -0.06,0.41 l -0.20,0.28 z m 7.61,0.01 c -0.07,-0.28 0.00,-0.42 0.15,-0.25 0.06,0.07 0.07,0.18 0.00,0.30 -0.08,0.17 -0.09,0.17 -0.16,-0.05 z m -5.95,-0.10 c 0,-0.15 0.32,-0.76 0.40,-0.76 0.11,-0.00 0.08,0.17 -0.09,0.53 -0.16,0.32 -0.30,0.43 -0.30,0.23 z m -0.47,-0.09 c 0,-0.13 0.18,-0.28 0.24,-0.20 0.02,0.02 -0.02,0.11 -0.10,0.18 -0.09,0.08 -0.14,0.09 -0.14,0.02 z m 2.89,-0.02 c -0.03,-0.06 -0.01,-0.17 0.04,-0.23 0.07,-0.08 0.10,-0.05 0.10,0.11 0,0.26 -0.04,0.30 -0.14,0.12 z m -7.36,-0.18 c 0.00,-0.10 0.03,-0.28 0.07,-0.39 0.06,-0.17 0.08,-0.18 0.19,-0.03 0.09,0.12 0.09,0.22 0.01,0.39 -0.12,0.27 -0.29,0.29 -0.28,0.03 z m 6.13,0.08 c -0.03,-0.05 -0.01,-0.10 0.03,-0.10 0.05,0 0.12,0.04 0.15,0.10 0.03,0.05 0.01,0.10 -0.03,0.10 -0.05,0 -0.12,-0.04 -0.15,-0.10 z m 7.94,-0.21 c 0,-0.18 0.04,-0.33 0.09,-0.33 0.05,0 0.09,0.11 0.09,0.26 0,0.14 -0.04,0.29 -0.09,0.33 -0.05,0.03 -0.09,-0.07 -0.09,-0.26 z m -5.50,0.05 c 0.01,-0.09 0.07,-0.17 0.12,-0.17 0.14,0.00 0.11,0.25 -0.03,0.30 -0.08,0.03 -0.11,-0.01 -0.09,-0.13 z m -7.53,-0.14 c 7.99e-4,-0.10 0.04,-0.26 0.09,-0.35 0.07,-0.12 0.09,-0.07 0.09,0.19 8.02e-4,0.19 -0.04,0.35 -0.09,0.35 -0.05,0 -0.09,-0.08 -0.09,-0.19 z m 4.72,0.02 c 0.05,-0.17 0.22,-0.21 0.22,-0.06 0,0.05 -0.06,0.12 -0.13,0.15 -0.09,0.04 -0.12,0.00 -0.08,-0.09 z m 0.79,0.05 c 0,-0.05 0.04,-0.10 0.09,-0.10 0.05,0 0.09,0.04 0.09,0.10 0,0.05 -0.04,0.10 -0.09,0.10 -0.05,0 -0.09,-0.04 -0.09,-0.10 z m 5.11,-0.29 c -0.02,-0.16 -0.02,-0.32 -0.00,-0.35 0.06,-0.07 0.31,0.33 0.31,0.50 0,0.27 -0.26,0.14 -0.31,-0.15 z m 1.07,-0.14 c 0,-0.24 -0.04,-0.53 -0.09,-0.64 -0.05,-0.11 -0.06,-0.40 -0.03,-0.64 0.06,-0.44 0.18,-0.59 0.19,-0.24 0.00,0.10 0.03,0.59 0.08,1.08 0.05,0.64 0.04,0.89 -0.03,0.89 -0.06,0 -0.10,-0.18 -0.10,-0.44 z m -5.33,0.17 c 0,-0.19 0.15,-0.31 0.29,-0.22 0.06,0.04 0.06,0.11 -0.01,0.22 -0.14,0.19 -0.27,0.19 -0.27,-0.00 z m -3.66,-0.18 c 0.08,-0.31 0.82,-1.08 0.93,-0.96 0.08,0.09 -0.35,0.65 -0.51,0.65 -0.04,0 -0.09,0.07 -0.09,0.15 0,0.08 -0.08,0.21 -0.19,0.28 -0.18,0.11 -0.19,0.09 -0.12,-0.13 z m 9.62,0.05 c -0.11,-0.13 -0.06,-0.55 0.07,-0.68 0.07,-0.07 0.14,-0.20 0.14,-0.28 0,-0.08 0.05,-0.14 0.13,-0.14 0.07,0 0.15,-0.07 0.18,-0.16 0.03,-0.08 0.13,-0.16 0.22,-0.15 0.15,0.00 0.15,0.02 -0.02,0.19 -0.35,0.34 -0.60,0.84 -0.55,1.09 0.05,0.22 -0.05,0.31 -0.19,0.16 z m -7.10,-0.07 c 0,-0.02 0.07,-0.10 0.16,-0.19 0.15,-0.13 0.15,-0.13 0.03,0.04 -0.12,0.18 -0.20,0.23 -0.20,0.14 z m 4.18,-0.11 c 0,-0.08 0.04,-0.18 0.09,-0.22 0.05,-0.03 0.09,0.03 0.09,0.15 0,0.12 -0.04,0.22 -0.09,0.22 -0.05,0 -0.09,-0.07 -0.09,-0.15 z m -10.03,-0.33 c 0.08,-0.44 0.29,-0.81 0.46,-0.81 0.07,0 0.14,-0.05 0.14,-0.11 0,-0.06 0.04,-0.08 0.09,-0.05 0.12,0.08 0.01,0.38 -0.14,0.38 -0.07,0 -0.13,0.07 -0.13,0.15 0,0.08 -0.10,0.29 -0.23,0.46 l -0.23,0.30 z m 1.52,0.10 c -0.09,-0.27 -0.07,-1.11 0.02,-1.18 0.13,-0.09 0.17,0.05 0.20,0.69 0.02,0.57 -0.11,0.86 -0.23,0.49 z m 4.70,0.00 c 0,-0.18 0.01,-0.19 0.22,-0.09 0.17,0.07 0.10,0.26 -0.09,0.26 -0.07,0 -0.13,-0.07 -0.13,-0.16 z m 2.18,-0.07 c 0,-0.20 0.26,-0.48 0.35,-0.37 0.03,0.04 -0.03,0.18 -0.14,0.31 -0.16,0.19 -0.20,0.20 -0.20,0.06 z m -5.59,-0.16 c 0.08,-0.10 0.18,-0.15 0.22,-0.11 0.09,0.10 -0.05,0.29 -0.22,0.29 -0.14,0 -0.14,-0.01 0.00,-0.18 z m 7.40,-0.33 c 0.00,-0.32 0.02,-0.36 0.08,-0.19 0.11,0.30 0.11,0.59 0,0.59 -0.05,0 -0.09,-0.18 -0.08,-0.40 z m -2.57,0.10 c 0.00,-0.14 0.13,-0.29 0.40,-0.44 0.33,-0.19 0.46,-0.06 0.16,0.18 -0.28,0.23 -0.56,0.36 -0.56,0.26 z m -2.86,-0.90 c -0.14,-0.31 -0.04,-0.37 0.18,-0.10 0.23,0.26 0.24,0.33 0.05,0.33 -0.07,0 -0.18,-0.10 -0.24,-0.22 z m 8.02,-0.03 c 0.01,-0.17 0.07,-0.25 0.18,-0.24 0.19,0.01 0.20,0.02 0.07,0.30 -0.13,0.29 -0.28,0.26 -0.26,-0.05 z m -9.33,-0.01 c 0.01,-0.10 0.09,-0.21 0.16,-0.24 0.08,-0.03 0.11,0.02 0.09,0.14 -0.01,0.10 -0.09,0.21 -0.16,0.24 -0.08,0.03 -0.11,-0.02 -0.09,-0.14 z m 2.00,0.04 c 0.04,-0.16 0.45,-0.19 0.45,-0.03 0.00,0.05 -0.11,0.12 -0.24,0.14 -0.17,0.02 -0.23,-0.00 -0.20,-0.10 z m 5.90,-0.00 c 0.05,-0.20 0.26,-0.23 0.26,-0.04 0,0.09 -0.06,0.17 -0.15,0.17 -0.08,0 -0.13,-0.05 -0.11,-0.12 z m -10.65,-0.27 c -0.06,-0.02 -0.11,-0.10 -0.11,-0.18 0,-0.17 0.24,-0.42 0.36,-0.36 0.13,0.05 -0.10,0.60 -0.24,0.55 z m 7.49,-0.02 c -0.07,-0.05 -0.09,-0.10 -0.04,-0.10 0.05,0 0.15,0.04 0.23,0.10 0.07,0.05 0.09,0.10 0.04,0.10 -0.05,0 -0.15,-0.04 -0.23,-0.10 z m -6.61,-0.28 c 0.02,-0.30 0.10,-0.44 0.18,-0.34 0.07,0.08 -0.05,0.62 -0.14,0.62 -0.03,0 -0.05,-0.12 -0.04,-0.28 z m 8.85,0.13 c 0.08,-0.24 0.34,-0.33 0.30,-0.09 -0.01,0.10 -0.10,0.20 -0.19,0.22 -0.11,0.02 -0.14,-0.01 -0.11,-0.12 z m -6.57,-0.17 c -0.06,-0.12 0.08,-0.24 0.17,-0.14 0.09,0.10 0.07,0.25 -0.02,0.25 -0.04,0 -0.11,-0.04 -0.14,-0.10 z m 9.12,-0.17 c -0.03,-0.08 -0.11,-0.16 -0.18,-0.16 -0.08,0 -0.13,-0.12 -0.13,-0.38 0,-0.27 -0.04,-0.38 -0.14,-0.38 -0.08,0 -0.12,-0.04 -0.09,-0.10 0.07,-0.13 0.62,0.21 0.62,0.39 2.86e-4,0.07 0.06,0.17 0.14,0.21 0.08,0.05 0.11,0.17 0.08,0.33 -0.06,0.27 -0.20,0.31 -0.28,0.07 z m -3.65,0.02 c -0.06,-0.25 -0.04,-0.40 0.07,-0.45 0.22,-0.09 0.32,0.03 0.21,0.27 -0.08,0.17 -0.26,0.28 -0.28,0.18 z M 68.48,169.99 c 0,-0.05 0.04,-0.10 0.09,-0.10 0.05,0 0.09,0.04 0.09,0.10 0,0.05 -0.04,0.10 -0.09,0.10 -0.05,0 -0.09,-0.04 -0.09,-0.10 z m -5.90,-0.27 c -0.06,-0.09 -0.07,-0.16 -0.02,-0.16 0.05,0 0.14,0.07 0.21,0.16 0.06,0.09 0.07,0.16 0.02,0.16 -0.05,0 -0.14,-0.07 -0.21,-0.16 z m 5.73,-0.28 c 0.02,-0.08 0.11,-0.16 0.21,-0.18 0.10,-0.02 0.15,0.01 0.12,0.10 -0.02,0.08 -0.11,0.16 -0.21,0.18 -0.10,0.02 -0.15,-0.01 -0.12,-0.10 z m 1.39,0.05 c -0.21,-0.06 -0.33,-0.46 -0.46,-1.54 -0.05,-0.49 -0.12,-0.96 -0.15,-1.03 -0.02,-0.07 -0.23,-0.13 -0.49,-0.13 -0.40,-0.00 -0.47,0.02 -0.61,0.30 -0.20,0.40 -0.48,0.40 -0.83,-0.00 -0.31,-0.36 -0.34,-0.60 -0.13,-1.17 0.21,-0.57 0.48,-0.87 1.13,-1.23 0.31,-0.17 0.78,-0.49 1.04,-0.72 0.41,-0.36 0.50,-0.51 0.72,-1.22 0.38,-1.26 0.45,-1.54 0.51,-2.00 0.07,-0.57 -0.25,-1.84 -0.56,-2.22 -0.13,-0.15 -0.23,-0.34 -0.23,-0.41 0,-0.20 -0.38,-1.46 -0.49,-1.62 -0.05,-0.07 -0.21,-0.13 -0.36,-0.13 -0.36,0 -1.12,-0.35 -1.72,-0.80 -0.27,-0.20 -0.69,-0.43 -0.92,-0.50 -0.54,-0.17 -0.87,-0.51 -1.35,-1.43 -0.36,-0.69 -0.56,-0.87 -0.69,-0.62 -0.03,0.06 0.02,0.28 0.13,0.49 0.10,0.21 0.19,0.55 0.19,0.76 0,0.33 -0.04,0.40 -0.33,0.53 -0.38,0.18 -0.52,0.12 -0.94,-0.37 -0.35,-0.42 -0.48,-0.43 -0.29,-0.01 0.20,0.44 0.18,0.60 -0.10,0.86 -0.33,0.30 -0.72,0.28 -1.06,-0.04 -0.15,-0.14 -0.30,-0.27 -0.34,-0.27 -0.03,0 -0.05,0.19 -0.05,0.42 0,0.76 -0.54,1.07 -1.15,0.67 -0.19,-0.12 -0.38,-0.23 -0.41,-0.23 -0.03,0 0.07,0.26 0.23,0.59 0.37,0.75 0.37,1.00 0.03,1.09 -0.45,0.11 -0.48,0.13 -0.65,0.49 -0.11,0.25 -0.17,0.74 -0.20,1.79 -0.04,1.26 -0.02,1.47 0.12,1.73 0.09,0.16 0.24,0.58 0.33,0.92 0.29,1.09 1.31,2.26 2.38,2.71 0.63,0.26 0.68,0.33 0.81,1.36 0.08,0.63 0.07,0.68 -0.25,1.40 -0.30,0.66 -0.37,0.75 -0.64,0.78 -0.25,0.02 -0.32,-0.01 -0.45,-0.29 -0.08,-0.18 -0.14,-0.36 -0.14,-0.41 0.00,-0.04 -0.17,-0.12 -0.39,-0.17 -0.50,-0.11 -0.72,0.07 -0.39,0.33 0.44,0.34 0.13,1.26 -0.42,1.26 -0.16,0 -0.35,-0.06 -0.42,-0.15 -0.20,-0.23 -0.45,-1.16 -0.45,-1.69 0,-0.59 -0.20,-0.62 -0.42,-0.06 -0.40,1.02 -0.59,1.36 -0.83,1.50 -0.24,0.14 -0.27,0.14 -0.49,-0.12 -0.18,-0.22 -0.21,-0.33 -0.14,-0.54 0.06,-0.18 0.03,-0.38 -0.09,-0.72 -0.13,-0.33 -0.18,-0.71 -0.18,-1.31 -0.00,-0.66 -0.03,-0.85 -0.15,-0.91 -0.28,-0.12 -0.62,0.31 -0.85,1.12 -0.33,1.19 -0.46,1.41 -0.82,1.47 -0.35,0.06 -0.64,-0.07 -0.64,-0.28 0,-0.07 0.10,-0.32 0.23,-0.54 0.13,-0.22 0.23,-0.51 0.23,-0.64 0,-0.30 0.26,-1.23 0.45,-1.55 0.21,-0.37 0.06,-0.49 -0.33,-0.26 -0.19,0.11 -0.51,0.23 -0.72,0.26 -0.20,0.03 -0.44,0.14 -0.53,0.24 -0.10,0.10 -0.29,0.16 -0.48,0.14 -0.26,-0.02 -0.32,-0.08 -0.34,-0.34 -0.01,-0.16 0.01,-0.37 0.08,-0.45 0.14,-0.19 0.58,-0.44 0.93,-0.53 0.39,-0.10 0.54,-0.35 0.61,-1.05 0.03,-0.33 0.08,-0.69 0.11,-0.78 0.11,-0.34 -0.24,-0.17 -0.37,0.18 -0.16,0.43 -0.49,0.84 -0.68,0.84 -0.07,0 -0.20,0.12 -0.29,0.27 -0.29,0.50 -0.99,0.24 -0.99,-0.37 0,-0.16 0.15,-0.41 0.43,-0.70 0.33,-0.35 0.46,-0.58 0.57,-1.04 0.17,-0.73 0.17,-0.75 0.00,-0.75 -0.19,0 -0.58,0.42 -0.79,0.86 -0.35,0.75 -1.02,0.35 -0.83,-0.49 0.03,-0.17 0.26,-0.51 0.49,-0.76 0.23,-0.24 0.51,-0.59 0.61,-0.76 0.30,-0.52 0.18,-1.34 -0.18,-1.34 -0.22,0 -0.39,-0.20 -0.39,-0.47 0,-0.11 0.13,-0.49 0.30,-0.84 l 0.30,-0.63 -0.20,-0.16 c -0.16,-0.13 -0.19,-0.23 -0.15,-0.57 0.02,-0.22 0.11,-0.48 0.18,-0.57 0.07,-0.10 0.10,-0.31 0.07,-0.54 -0.06,-0.48 -0.01,-0.54 0.66,-0.87 0.66,-0.32 0.82,-0.53 0.60,-0.82 -0.08,-0.10 -0.17,-0.42 -0.21,-0.69 -0.07,-0.56 0.00,-0.67 0.70,-1.06 0.90,-0.49 1.02,-0.62 1.09,-1.14 0.07,-0.59 0.28,-0.82 0.82,-0.90 0.28,-0.04 0.63,-0.23 1.10,-0.61 0.55,-0.43 0.76,-0.54 1.04,-0.53 0.23,0.00 0.64,-0.13 1.21,-0.43 0.75,-0.39 0.97,-0.45 1.90,-0.54 1.00,-0.09 2.31,-0.06 3.71,0.08 0.44,0.04 0.78,0.02 1.04,-0.07 0.21,-0.08 0.72,-0.14 1.14,-0.14 0.74,0 0.78,0.01 1.47,0.50 0.99,0.70 1.28,0.85 1.59,0.85 0.62,0 2.68,1.35 3.14,2.06 0.11,0.18 0.40,0.43 0.63,0.55 0.49,0.26 0.62,0.60 0.38,1.01 -0.14,0.25 -0.14,0.27 0.18,0.62 0.18,0.19 0.40,0.39 0.47,0.44 0.17,0.11 0.17,0.55 -0.00,0.72 -0.23,0.22 -0.15,0.47 0.23,0.78 0.33,0.26 0.37,0.34 0.35,0.69 -0.01,0.37 0.00,0.41 0.29,0.50 0.40,0.13 1.09,1.05 1.05,1.39 -0.04,0.34 -0.40,0.52 -0.74,0.37 -0.15,-0.06 -0.30,-0.07 -0.34,-0.03 -0.09,0.10 0.40,0.61 0.59,0.61 0.07,0 0.20,0.12 0.29,0.27 0.14,0.24 0.14,0.29 0.01,0.52 -0.07,0.13 -0.31,0.31 -0.53,0.38 -0.31,0.10 -0.39,0.18 -0.39,0.39 0,0.19 0.07,0.28 0.30,0.37 0.89,0.35 0.83,1.20 -0.08,1.20 -0.54,0 -0.64,0.18 -0.50,0.86 0.06,0.29 0.23,0.72 0.39,0.94 0.31,0.45 0.33,0.60 0.12,0.84 -0.18,0.21 -0.48,0.21 -0.80,0.00 -0.13,-0.08 -0.32,-0.15 -0.44,-0.15 -0.40,-0.00 -0.43,0.75 -0.05,1.36 0.51,0.81 0.46,1.13 -0.17,1.13 -0.29,0 -0.40,-0.06 -0.56,-0.32 -0.24,-0.38 -0.41,-0.41 -0.60,-0.09 -0.10,0.16 -0.11,0.29 -0.05,0.42 0.15,0.33 0.10,0.91 -0.10,1.13 -0.15,0.16 -0.23,0.17 -0.42,0.07 -0.13,-0.07 -0.23,-0.21 -0.23,-0.33 0,-0.11 -0.08,-0.38 -0.19,-0.59 -0.16,-0.32 -0.22,-0.36 -0.38,-0.27 -0.09,0.06 -0.24,0.22 -0.33,0.37 -0.15,0.27 -0.13,0.48 0.16,1.66 0.11,0.45 0.11,0.48 -0.14,0.73 -0.41,0.41 -0.70,0.33 -0.87,-0.21 -0.05,-0.17 -0.14,-0.33 -0.21,-0.36 -0.14,-0.05 -0.50,0.59 -0.50,0.91 -6.66e-4,0.43 -0.50,0.75 -0.96,0.61 z m -8.31,-0.25 c 0.03,-0.05 0.10,-0.10 0.15,-0.10 0.05,0 0.06,0.04 0.03,0.10 -0.03,0.05 -0.10,0.10 -0.15,0.10 -0.05,0 -0.06,-0.04 -0.03,-0.10 z m 2.29,-5.29 c -0.59,-0.34 -0.64,-0.39 -0.50,-0.55 0.19,-0.21 1.12,-0.31 1.47,-0.14 0.21,0.10 0.32,0.09 0.54,-0.03 0.40,-0.23 1.37,-0.11 1.37,0.16 0,0.41 -1.01,0.97 -1.74,0.95 -0.35,-0.00 -0.66,-0.11 -1.14,-0.39 z m 4.08,-0.62 c -0.43,-0.15 -0.88,-0.71 -0.96,-1.21 -0.06,-0.39 0.29,-1.22 0.65,-1.51 0.40,-0.32 1.56,-0.14 2.02,0.31 0.20,0.19 0.26,0.36 0.29,0.83 0.04,0.74 -0.18,1.22 -0.75,1.51 -0.45,0.23 -0.71,0.24 -1.25,0.05 z m -7.30,-0.37 c -0.35,-0.37 -0.39,-0.48 -0.43,-1.03 -0.04,-0.58 -0.02,-0.63 0.28,-0.98 0.59,-0.67 1.53,-0.62 2.14,0.11 0.40,0.49 0.46,0.80 0.26,1.39 -0.23,0.71 -0.52,0.92 -1.25,0.92 -0.57,0 -0.63,-0.02 -1.00,-0.41 z m 4.89,-1.01 c -0.15,-0.18 -0.14,-0.27 0.06,-0.40 0.24,-0.15 0.54,0.15 0.37,0.38 -0.13,0.18 -0.29,0.19 -0.44,0.02 z m -1.40,-0.09 c -0.03,-0.06 -0.00,-0.18 0.05,-0.27 0.14,-0.19 0.39,-0.00 0.31,0.23 -0.06,0.18 -0.27,0.20 -0.36,0.04 z m 2.42,-2.30 c -0.65,-0.30 -0.73,-0.58 -0.26,-0.98 0.44,-0.38 0.95,-0.61 1.37,-0.61 0.40,1e-4 1.41,0.50 1.67,0.83 0.22,0.29 0.14,0.47 -0.33,0.76 -0.56,0.34 -1.70,0.33 -2.44,-0.00 z m 0.68,-0.45 c 0.02,-0.14 0.02,-0.29 -0.00,-0.32 -0.11,-0.12 -0.37,-0.04 -0.54,0.16 -0.15,0.19 -0.15,0.23 -0.03,0.32 0.27,0.19 0.54,0.11 0.59,-0.16 z m 1.59,-0.00 c 0,-0.08 -0.06,-0.16 -0.14,-0.16 -0.07,0 -0.14,0.07 -0.14,0.16 0,0.08 0.06,0.16 0.14,0.16 0.07,0 0.14,-0.07 0.14,-0.16 z m -7.75,0.50 c -0.43,-0.09 -0.72,-0.25 -0.90,-0.49 -0.17,-0.23 0.06,-0.51 0.71,-0.87 0.74,-0.40 1.39,-0.45 2.06,-0.16 0.59,0.25 0.83,0.54 0.83,1.00 0,0.24 -0.05,0.31 -0.35,0.42 -0.44,0.15 -1.84,0.22 -2.35,0.11 z m 0.50,-0.60 c 0.04,-0.44 -0.09,-0.53 -0.49,-0.34 -0.42,0.20 -0.43,0.34 -0.03,0.54 0.40,0.20 0.49,0.16 0.53,-0.20 z m 1.61,-0.02 c -0.04,-0.27 -0.26,-0.31 -0.26,-0.04 0,0.13 0.06,0.22 0.14,0.22 0.08,0 0.13,-0.07 0.11,-0.18 z"
         style="fill:#f4db1e;stroke-width:0.10" />
      <path
         id="path35"
         d="m 64.77,223.52 c -0.18,-0.02 -0.38,-0.10 -0.45,-0.16 -0.23,-0.22 -0.12,-0.76 0.29,-1.49 0.70,-1.21 1.32,-2.52 1.45,-3.10 0.07,-0.30 0.12,-0.95 0.12,-1.45 6.66e-4,-0.49 0.04,-1.36 0.10,-1.93 0.06,-0.71 0.07,-1.14 0.00,-1.38 -0.05,-0.19 -0.12,-0.95 -0.15,-1.70 -0.11,-2.74 -0.22,-4.52 -0.32,-5.16 -0.05,-0.35 -0.10,-1.54 -0.10,-2.64 -3.81e-4,-1.31 -0.03,-2.07 -0.11,-2.22 -0.14,-0.31 -0.15,-1.69 -0.01,-2.55 0.08,-0.52 0.08,-0.73 0.00,-0.89 -0.06,-0.11 -0.08,-0.22 -0.06,-0.25 0.06,-0.07 0.78,0.16 1.75,0.57 0.96,0.40 2.15,0.54 2.55,0.29 0.26,-0.16 0.27,-0.16 0.20,0.07 -0.12,0.46 -0.22,1.77 -0.24,3.07 -0.02,1.80 -0.03,1.63 0.18,3.80 0.10,1.07 0.17,2.17 0.15,2.44 -0.11,1.26 -0.26,2.28 -0.34,2.28 -0.04,0 -0.07,0.13 -0.07,0.30 0,0.16 -0.04,0.35 -0.09,0.41 -0.05,0.06 -0.11,0.40 -0.14,0.75 -0.06,0.97 -0.12,1.37 -0.24,1.70 -0.06,0.18 -0.09,0.62 -0.06,1.12 0.05,0.93 -0.11,2.40 -0.34,3.02 -0.08,0.23 -0.15,0.70 -0.15,1.05 0,0.60 -0.03,0.68 -0.63,1.69 -1.14,1.92 -1.99,2.53 -3.27,2.34 z m -5.66,-2.18 c -0.36,-0.05 -0.56,-0.23 -0.43,-0.38 0.05,-0.05 0.30,-0.23 0.57,-0.39 0.65,-0.38 1.56,-1.43 1.84,-2.11 0.17,-0.42 0.23,-0.78 0.26,-1.48 0.04,-1.27 -0.08,-3.46 -0.30,-5.21 -0.29,-2.34 -0.37,-3.38 -0.31,-4.04 0.07,-0.77 0.07,-2.76 5.71e-4,-3.99 -0.05,-0.93 -0.14,-1.53 -0.40,-2.82 -0.07,-0.38 -0.20,-1.04 -0.27,-1.46 -0.07,-0.41 -0.16,-0.87 -0.19,-1.00 -0.05,-0.22 -0.02,-0.24 0.27,-0.24 0.20,0 0.58,0.15 0.95,0.37 0.54,0.33 0.74,0.38 1.78,0.49 1.24,0.13 1.70,0.09 1.89,-0.16 0.21,-0.29 0.30,-0.17 0.24,0.30 -0.03,0.25 -0.09,1.09 -0.14,1.87 -0.04,0.77 -0.15,1.80 -0.23,2.28 -0.18,1.09 -0.18,2.06 -0.00,3.64 0.15,1.33 0.11,2.60 -0.10,3.53 -0.32,1.39 -0.37,5.00 -0.07,6.48 0.18,0.94 0.08,1.23 -0.56,1.59 -0.25,0.13 -0.59,0.43 -0.76,0.65 -0.31,0.42 -0.44,0.55 -1.08,1.15 -0.82,0.76 -1.90,1.11 -2.92,0.95 z m 16.36,-23.92 c 0.07,-0.26 -0.16,-1.50 -0.41,-2.09 -0.23,-0.55 -0.52,-1.03 -1.06,-1.74 -0.54,-0.70 -0.55,-0.73 -0.55,-1.54 l -0.00,-0.72 0.45,-0.06 c 0.42,-0.05 0.70,-0.14 1.09,-0.32 0.13,-0.06 0.16,-0.02 0.16,0.23 3.81e-4,0.38 0.50,1.54 0.97,2.24 0.19,0.28 0.35,0.56 0.35,0.61 0,0.04 0.17,0.32 0.38,0.61 0.40,0.55 0.47,0.80 0.23,0.80 -0.07,0 -0.14,-0.04 -0.14,-0.10 0,-0.14 -0.44,-0.14 -0.52,0.00 -0.03,0.06 0.01,0.35 0.09,0.65 0.22,0.77 0.14,1.04 -0.12,0.40 -0.24,-0.58 -0.58,-0.84 -0.82,-0.62 -0.18,0.17 -0.18,0.34 0.01,0.97 0.15,0.51 0.13,0.87 -0.06,0.87 -0.05,0 -0.08,-0.08 -0.05,-0.19 z m -21.96,0.01 c -0.10,-0.11 -0.07,-0.46 0.07,-0.83 0.07,-0.18 0.15,-0.50 0.17,-0.69 0.03,-0.33 0.01,-0.35 -0.34,-0.44 -0.21,-0.05 -0.45,-0.05 -0.53,-0.01 -0.11,0.06 -0.14,0.01 -0.14,-0.20 0.00,-0.21 -0.04,-0.29 -0.21,-0.32 -0.25,-0.04 -0.26,-0.15 -0.06,-0.50 0.08,-0.14 0.12,-0.31 0.09,-0.37 -0.10,-0.19 -0.93,-0.10 -1.21,0.13 -0.14,0.12 -0.28,0.19 -0.31,0.16 -0.05,-0.06 0.54,-0.63 0.90,-0.85 0.13,-0.07 0.47,-0.40 0.76,-0.72 0.28,-0.32 0.64,-0.66 0.78,-0.76 0.17,-0.11 0.26,-0.27 0.26,-0.45 0.00,-0.52 0.07,-0.54 0.98,-0.39 0.96,0.16 1.09,0.25 0.88,0.62 -0.20,0.35 -0.28,1.22 -0.17,1.96 0.06,0.42 0.05,0.86 -0.02,1.39 -0.12,0.82 -0.16,0.90 -0.51,1.02 -0.20,0.07 -0.22,0.05 -0.15,-0.17 0.03,-0.14 0.09,-0.48 0.11,-0.75 0.03,-0.38 0.01,-0.51 -0.09,-0.56 -0.20,-0.09 -0.51,0.19 -0.57,0.54 -0.42,2.38 -0.45,2.48 -0.66,2.24 z m -1.42,-0.21 c -0.11,-0.13 -0.06,-0.44 0.11,-0.70 l 0.18,-0.25 -0.07,0.46 c -0.08,0.50 -0.12,0.60 -0.22,0.49 z m 0.31,-1.15 c 0,-0.08 0.05,-0.21 0.12,-0.27 0.09,-0.09 0.12,-0.06 0.11,0.11 -0.01,0.26 -0.23,0.41 -0.23,0.16 z m 24.84,-0.13 c 0,-0.08 0.04,-0.16 0.09,-0.16 0.05,0 0.09,0.07 0.09,0.16 0,0.08 -0.04,0.16 -0.09,0.16 -0.05,0 -0.09,-0.07 -0.09,-0.16 z m -25.70,-0.65 c 0.28,-0.35 0.54,-0.52 0.60,-0.40 0.02,0.04 -0.15,0.22 -0.39,0.39 l -0.44,0.30 z m 18.20,-25.83 c -0.26,-0.12 -0.34,-0.36 -0.49,-1.50 -0.06,-0.49 -0.13,-0.96 -0.15,-1.03 -0.02,-0.07 -0.23,-0.13 -0.49,-0.13 -0.40,-0.00 -0.47,0.02 -0.61,0.30 -0.20,0.40 -0.48,0.40 -0.83,-0.00 -0.31,-0.36 -0.34,-0.60 -0.13,-1.17 0.21,-0.57 0.48,-0.87 1.13,-1.23 0.31,-0.17 0.78,-0.49 1.04,-0.72 0.41,-0.36 0.50,-0.51 0.72,-1.22 0.38,-1.26 0.45,-1.54 0.51,-2.00 0.07,-0.57 -0.25,-1.84 -0.56,-2.22 -0.13,-0.15 -0.23,-0.34 -0.23,-0.41 0,-0.20 -0.38,-1.46 -0.49,-1.62 -0.05,-0.07 -0.21,-0.13 -0.36,-0.13 -0.36,0 -1.12,-0.35 -1.72,-0.80 -0.27,-0.20 -0.69,-0.43 -0.92,-0.50 -0.54,-0.17 -0.87,-0.51 -1.35,-1.43 -0.36,-0.69 -0.56,-0.87 -0.69,-0.62 -0.03,0.06 0.02,0.28 0.13,0.49 0.10,0.21 0.19,0.55 0.19,0.76 0,0.33 -0.04,0.40 -0.33,0.53 -0.38,0.18 -0.52,0.12 -0.94,-0.37 -0.35,-0.42 -0.48,-0.43 -0.29,-0.01 0.20,0.44 0.18,0.60 -0.10,0.86 -0.33,0.30 -0.72,0.28 -1.06,-0.04 -0.15,-0.14 -0.30,-0.27 -0.34,-0.27 -0.03,0 -0.05,0.19 -0.05,0.42 0,0.76 -0.54,1.07 -1.15,0.67 -0.19,-0.12 -0.38,-0.23 -0.41,-0.23 -0.03,0 0.07,0.26 0.23,0.59 0.37,0.75 0.37,1.00 0.03,1.09 -0.45,0.11 -0.48,0.13 -0.65,0.49 -0.11,0.25 -0.17,0.74 -0.20,1.79 -0.04,1.26 -0.02,1.47 0.12,1.73 0.09,0.16 0.24,0.58 0.33,0.92 0.29,1.09 1.31,2.26 2.38,2.71 0.63,0.26 0.68,0.33 0.81,1.36 0.08,0.63 0.07,0.68 -0.25,1.40 -0.27,0.59 -0.38,0.75 -0.58,0.78 -0.26,0.03 -0.56,-0.25 -0.60,-0.59 -0.03,-0.25 -0.77,-0.45 -0.94,-0.25 -0.08,0.09 -0.05,0.16 0.10,0.29 0.28,0.21 0.27,0.68 -0.00,0.99 -0.24,0.26 -0.60,0.30 -0.83,0.09 -0.20,-0.18 -0.46,-1.11 -0.46,-1.67 0,-0.59 -0.20,-0.62 -0.42,-0.06 -0.40,1.02 -0.59,1.36 -0.83,1.50 -0.24,0.14 -0.27,0.14 -0.49,-0.12 -0.18,-0.22 -0.21,-0.33 -0.14,-0.54 0.06,-0.18 0.03,-0.38 -0.09,-0.72 -0.13,-0.33 -0.18,-0.71 -0.18,-1.31 -0.00,-0.66 -0.03,-0.85 -0.15,-0.91 -0.28,-0.12 -0.62,0.31 -0.85,1.12 -0.33,1.19 -0.46,1.41 -0.82,1.47 -0.35,0.06 -0.64,-0.07 -0.64,-0.28 0,-0.07 0.10,-0.32 0.23,-0.54 0.13,-0.22 0.23,-0.51 0.23,-0.64 0,-0.30 0.26,-1.23 0.45,-1.55 0.21,-0.37 0.06,-0.49 -0.33,-0.26 -0.19,0.11 -0.51,0.23 -0.72,0.26 -0.20,0.03 -0.44,0.14 -0.53,0.24 -0.10,0.10 -0.29,0.16 -0.48,0.14 -0.26,-0.02 -0.32,-0.08 -0.34,-0.34 -0.01,-0.16 0.01,-0.37 0.08,-0.45 0.14,-0.19 0.58,-0.44 0.93,-0.53 0.39,-0.10 0.54,-0.35 0.61,-1.05 0.03,-0.33 0.08,-0.69 0.11,-0.78 0.11,-0.34 -0.24,-0.17 -0.37,0.18 -0.16,0.43 -0.49,0.84 -0.68,0.84 -0.07,0 -0.20,0.12 -0.29,0.27 -0.29,0.50 -0.99,0.24 -0.99,-0.37 0,-0.16 0.15,-0.41 0.43,-0.70 0.33,-0.35 0.46,-0.58 0.57,-1.04 0.17,-0.73 0.17,-0.75 0.00,-0.75 -0.19,0 -0.58,0.42 -0.79,0.86 -0.35,0.75 -1.02,0.35 -0.83,-0.49 0.03,-0.17 0.26,-0.51 0.49,-0.76 0.23,-0.24 0.51,-0.59 0.61,-0.76 0.30,-0.52 0.18,-1.34 -0.18,-1.34 -0.22,0 -0.39,-0.20 -0.39,-0.47 0,-0.11 0.13,-0.49 0.30,-0.84 l 0.30,-0.63 -0.20,-0.16 c -0.16,-0.13 -0.19,-0.23 -0.15,-0.57 0.02,-0.22 0.11,-0.48 0.18,-0.57 0.07,-0.10 0.10,-0.31 0.07,-0.54 -0.06,-0.48 -0.01,-0.54 0.66,-0.87 0.66,-0.32 0.82,-0.53 0.60,-0.82 -0.08,-0.10 -0.17,-0.42 -0.21,-0.69 -0.07,-0.56 0.00,-0.67 0.70,-1.06 0.90,-0.49 1.02,-0.62 1.09,-1.14 0.07,-0.59 0.28,-0.82 0.82,-0.90 0.28,-0.04 0.63,-0.23 1.10,-0.61 0.55,-0.43 0.76,-0.54 1.04,-0.53 0.23,0.00 0.64,-0.13 1.21,-0.43 0.75,-0.39 0.97,-0.45 1.90,-0.54 1.00,-0.09 2.31,-0.06 3.71,0.08 0.44,0.04 0.78,0.02 1.04,-0.07 0.21,-0.08 0.72,-0.14 1.14,-0.14 0.74,0 0.78,0.01 1.47,0.50 0.99,0.70 1.28,0.85 1.59,0.85 0.62,0 2.68,1.35 3.14,2.06 0.11,0.18 0.40,0.43 0.63,0.55 0.49,0.26 0.62,0.60 0.38,1.01 -0.14,0.25 -0.14,0.27 0.18,0.62 0.18,0.19 0.40,0.39 0.47,0.44 0.17,0.11 0.17,0.55 -0.00,0.72 -0.23,0.22 -0.15,0.47 0.23,0.78 0.33,0.26 0.37,0.34 0.35,0.69 -0.01,0.37 0.00,0.41 0.29,0.50 0.40,0.13 1.09,1.05 1.05,1.39 -0.04,0.34 -0.40,0.52 -0.74,0.37 -0.15,-0.06 -0.30,-0.07 -0.34,-0.03 -0.09,0.10 0.40,0.61 0.59,0.61 0.07,0 0.20,0.12 0.29,0.27 0.14,0.24 0.14,0.29 0.01,0.52 -0.07,0.13 -0.31,0.31 -0.53,0.38 -0.31,0.10 -0.39,0.18 -0.39,0.39 0,0.19 0.07,0.28 0.30,0.37 0.89,0.35 0.83,1.20 -0.08,1.20 -0.54,0 -0.64,0.18 -0.50,0.86 0.06,0.29 0.23,0.72 0.39,0.94 0.31,0.45 0.33,0.60 0.12,0.84 -0.18,0.21 -0.48,0.21 -0.80,0.00 -0.13,-0.08 -0.32,-0.15 -0.44,-0.15 -0.40,-0.00 -0.43,0.75 -0.05,1.36 0.51,0.81 0.46,1.13 -0.17,1.13 -0.29,0 -0.40,-0.06 -0.56,-0.32 -0.24,-0.38 -0.41,-0.41 -0.60,-0.09 -0.10,0.16 -0.11,0.29 -0.05,0.42 0.15,0.33 0.10,0.91 -0.10,1.13 -0.15,0.16 -0.23,0.17 -0.42,0.07 -0.13,-0.07 -0.23,-0.21 -0.23,-0.33 0,-0.11 -0.08,-0.38 -0.19,-0.59 -0.16,-0.32 -0.22,-0.36 -0.38,-0.27 -0.09,0.06 -0.24,0.22 -0.33,0.37 -0.16,0.28 -0.13,0.59 0.12,1.47 0.17,0.57 0.13,0.77 -0.20,1.03 -0.29,0.22 -0.71,0.13 -0.71,-0.15 0,-0.10 -0.06,-0.28 -0.14,-0.40 -0.14,-0.20 -0.14,-0.20 -0.33,0.04 -0.10,0.14 -0.23,0.44 -0.28,0.67 -0.06,0.29 -0.18,0.47 -0.37,0.58 -0.15,0.09 -0.29,0.16 -0.30,0.15 -0.01,-0.00 -0.12,-0.05 -0.24,-0.10 z m -6.05,-5.50 c -0.59,-0.34 -0.64,-0.39 -0.50,-0.55 0.19,-0.21 1.12,-0.31 1.47,-0.14 0.21,0.10 0.32,0.09 0.54,-0.03 0.40,-0.23 1.37,-0.11 1.37,0.16 0,0.41 -1.01,0.97 -1.74,0.95 -0.35,-0.00 -0.66,-0.11 -1.14,-0.39 z m 4.08,-0.62 c -0.43,-0.15 -0.88,-0.71 -0.96,-1.21 -0.06,-0.39 0.29,-1.22 0.65,-1.51 0.40,-0.32 1.56,-0.14 2.02,0.31 0.20,0.19 0.26,0.36 0.29,0.83 0.04,0.74 -0.18,1.22 -0.75,1.51 -0.45,0.23 -0.71,0.24 -1.25,0.05 z m -7.30,-0.37 c -0.35,-0.37 -0.39,-0.48 -0.43,-1.03 -0.04,-0.58 -0.02,-0.63 0.28,-0.98 0.59,-0.67 1.53,-0.62 2.14,0.11 0.40,0.49 0.46,0.80 0.26,1.39 -0.23,0.71 -0.52,0.92 -1.25,0.92 -0.57,0 -0.63,-0.02 -1.00,-0.41 z m 4.89,-1.01 c -0.15,-0.18 -0.14,-0.27 0.06,-0.40 0.24,-0.15 0.54,0.15 0.37,0.38 -0.13,0.18 -0.29,0.19 -0.44,0.02 z m -1.40,-0.09 c -0.03,-0.06 -0.00,-0.18 0.05,-0.27 0.14,-0.19 0.39,-0.00 0.31,0.23 -0.06,0.18 -0.27,0.20 -0.36,0.04 z m 2.42,-2.30 c -0.65,-0.30 -0.73,-0.58 -0.26,-0.98 0.44,-0.38 0.95,-0.61 1.37,-0.61 0.40,1e-4 1.41,0.50 1.67,0.83 0.22,0.29 0.14,0.47 -0.33,0.76 -0.56,0.34 -1.70,0.33 -2.44,-0.00 z m 0.68,-0.45 c 0.02,-0.14 0.02,-0.29 -0.00,-0.32 -0.11,-0.12 -0.37,-0.04 -0.54,0.16 -0.15,0.19 -0.15,0.23 -0.03,0.32 0.27,0.19 0.54,0.11 0.59,-0.16 z m 1.59,-0.00 c 0,-0.08 -0.06,-0.16 -0.14,-0.16 -0.07,0 -0.14,0.07 -0.14,0.16 0,0.08 0.06,0.16 0.14,0.16 0.07,0 0.14,-0.07 0.14,-0.16 z m -7.75,0.50 c -0.43,-0.09 -0.72,-0.25 -0.90,-0.49 -0.17,-0.23 0.06,-0.51 0.71,-0.87 0.74,-0.40 1.39,-0.45 2.06,-0.16 0.59,0.25 0.83,0.54 0.83,1.00 0,0.24 -0.05,0.31 -0.35,0.42 -0.44,0.15 -1.84,0.22 -2.35,0.11 z m 0.50,-0.60 c 0.04,-0.44 -0.09,-0.53 -0.49,-0.34 -0.42,0.20 -0.43,0.34 -0.03,0.54 0.40,0.20 0.49,0.16 0.53,-0.20 z m 1.61,-0.02 c -0.04,-0.27 -0.26,-0.31 -0.26,-0.04 0,0.13 0.06,0.22 0.14,0.22 0.08,0 0.13,-0.07 0.11,-0.18 z"
         style="fill:#efa34b;stroke-width:0.10" />
      <path
         id="path29"
         d="m 69.70,169.15 c -0.07,-0.10 -0.17,-0.41 -0.20,-0.67 -0.19,-1.50 -0.39,-2.06 -0.66,-1.87 -0.05,0.03 -0.23,0.05 -0.40,0.04 -0.25,-0.01 -0.33,0.03 -0.45,0.30 -0.18,0.39 -0.36,0.41 -0.67,0.06 -0.26,-0.30 -0.30,-0.78 -0.10,-1.23 0.18,-0.41 0.43,-0.64 1.07,-0.99 0.89,-0.48 1.50,-1.10 1.69,-1.71 0.08,-0.28 0.20,-0.62 0.26,-0.74 0.11,-0.23 0.23,-0.80 0.34,-1.57 0.08,-0.61 -0.19,-1.89 -0.50,-2.28 -0.11,-0.14 -0.28,-0.54 -0.37,-0.86 -0.34,-1.27 -0.40,-1.38 -0.89,-1.46 -0.55,-0.09 -0.94,-0.27 -1.72,-0.81 -0.34,-0.23 -0.79,-0.47 -1.01,-0.54 -0.45,-0.13 -0.81,-0.56 -1.26,-1.54 -0.29,-0.62 -0.45,-0.74 -0.74,-0.53 -0.14,0.10 -0.11,0.32 0.12,1.06 0.18,0.56 0.12,0.75 -0.24,0.85 -0.24,0.06 -0.34,0.01 -0.68,-0.37 -0.21,-0.24 -0.44,-0.44 -0.51,-0.44 -0.16,0 -0.14,0.44 0.03,0.73 0.13,0.21 0.12,0.25 -0.04,0.45 -0.26,0.30 -0.68,0.27 -1.04,-0.06 -0.40,-0.38 -0.62,-0.28 -0.54,0.25 0.04,0.28 0.01,0.45 -0.09,0.59 -0.20,0.25 -0.68,0.24 -0.98,-0.02 -0.54,-0.48 -0.64,-0.06 -0.18,0.78 0.31,0.57 0.30,0.73 -0.04,0.73 -0.21,0 -0.70,0.52 -0.72,0.79 -0.00,0.07 -0.02,0.24 -0.04,0.39 -0.01,0.14 -0.05,0.80 -0.07,1.46 -0.03,1.09 -0.01,1.23 0.19,1.70 0.12,0.28 0.22,0.59 0.22,0.68 0,0.37 0.48,1.22 1.03,1.82 0.49,0.54 1.25,1.05 1.92,1.30 0.09,0.03 0.19,0.31 0.27,0.81 0.11,0.71 0.11,0.78 -0.08,1.28 -0.33,0.83 -0.34,0.85 -0.61,0.88 -0.25,0.03 -0.28,-0.00 -0.38,-0.53 -0.04,-0.25 -0.10,-0.29 -0.55,-0.34 -0.27,-0.03 -0.55,-0.00 -0.61,0.05 -0.16,0.14 -0.14,0.46 0.02,0.62 0.18,0.17 0.18,0.58 0.00,0.75 -0.07,0.07 -0.25,0.11 -0.40,0.09 -0.40,-0.05 -0.72,-0.81 -0.66,-1.59 0.02,-0.42 0.00,-0.59 -0.09,-0.63 -0.19,-0.08 -0.49,0.27 -0.60,0.72 -0.13,0.52 -0.57,1.24 -0.78,1.29 -0.27,0.05 -0.46,-0.20 -0.40,-0.54 0.03,-0.18 -0.01,-0.48 -0.13,-0.76 -0.13,-0.33 -0.18,-0.71 -0.18,-1.35 -0.00,-0.75 -0.02,-0.90 -0.17,-1.00 -0.13,-0.08 -0.25,-0.04 -0.52,0.17 -0.19,0.15 -0.34,0.36 -0.34,0.47 0,0.22 -0.45,1.62 -0.58,1.80 -0.12,0.17 -0.51,0.24 -0.69,0.12 -0.14,-0.09 -0.13,-0.14 0.09,-0.58 0.13,-0.26 0.28,-0.75 0.33,-1.09 0.04,-0.33 0.16,-0.73 0.25,-0.89 0.13,-0.22 0.40,-0.93 0.40,-1.07 0.00,-0.09 -0.24,0.01 -0.61,0.28 -0.23,0.17 -0.61,0.34 -0.83,0.38 -0.22,0.04 -0.50,0.14 -0.62,0.23 -0.53,0.39 -0.93,-0.15 -0.43,-0.59 0.14,-0.12 0.43,-0.28 0.64,-0.34 0.49,-0.15 0.72,-0.38 0.72,-0.74 6.19e-4,-0.15 0.06,-0.55 0.13,-0.87 0.08,-0.37 0.10,-0.63 0.04,-0.69 -0.11,-0.13 -0.57,0.09 -0.57,0.28 0,0.26 -0.48,0.95 -0.66,0.95 -0.10,0 -0.25,0.12 -0.34,0.27 -0.19,0.33 -0.56,0.35 -0.70,0.04 -0.15,-0.32 0.04,-0.80 0.43,-1.06 0.23,-0.16 0.34,-0.33 0.42,-0.68 0.05,-0.25 0.14,-0.61 0.19,-0.78 0.12,-0.43 0.11,-0.50 -0.07,-0.50 -0.25,0 -0.83,0.58 -1.01,1.02 -0.17,0.43 -0.46,0.51 -0.62,0.17 -0.17,-0.36 -0.10,-0.66 0.21,-1.03 0.83,-0.95 1.02,-1.25 1.02,-1.62 0,-0.53 -0.15,-0.93 -0.36,-0.93 -0.09,0 -0.23,-0.07 -0.30,-0.17 -0.10,-0.14 -0.08,-0.26 0.13,-0.73 0.13,-0.31 0.30,-0.65 0.37,-0.76 0.10,-0.17 0.08,-0.22 -0.09,-0.36 -0.27,-0.21 -0.28,-0.71 -0.02,-1.08 0.14,-0.21 0.16,-0.32 0.08,-0.48 -0.11,-0.24 -0.03,-0.63 0.14,-0.63 0.20,0 1.29,-0.66 1.29,-0.78 0,-0.06 -0.08,-0.22 -0.18,-0.34 -0.25,-0.31 -0.28,-1.06 -0.05,-1.36 0.09,-0.12 0.24,-0.22 0.33,-0.22 0.08,0 0.26,-0.09 0.38,-0.20 0.12,-0.11 0.36,-0.28 0.53,-0.37 0.25,-0.14 0.31,-0.26 0.36,-0.66 0.07,-0.58 0.38,-0.92 0.84,-0.92 0.20,0 0.48,-0.15 0.89,-0.49 0.69,-0.57 0.93,-0.69 1.26,-0.62 0.15,0.03 0.52,-0.10 1.07,-0.40 0.76,-0.42 0.93,-0.47 1.89,-0.55 1.00,-0.09 2.14,-0.06 3.78,0.08 0.47,0.04 0.80,0.02 0.93,-0.06 0.11,-0.06 0.51,-0.15 0.90,-0.18 0.75,-0.06 0.97,0.02 2.47,1.00 0.31,0.20 0.70,0.37 0.86,0.37 0.62,0.00 2.13,0.96 2.98,1.90 0.28,0.31 0.64,0.64 0.80,0.72 0.38,0.20 0.51,0.47 0.36,0.71 -0.06,0.10 -0.14,0.25 -0.17,0.33 -0.06,0.16 0.47,0.85 0.74,0.95 0.23,0.08 0.21,0.38 -0.03,0.75 l -0.20,0.30 0.27,0.25 c 0.61,0.55 0.61,0.56 0.51,0.86 -0.11,0.35 -0.00,0.53 0.38,0.62 0.34,0.07 1.04,0.89 1.04,1.23 0.00,0.30 -0.39,0.44 -0.71,0.24 -0.22,-0.13 -0.52,-0.08 -0.52,0.09 0,0.21 0.40,0.66 0.70,0.77 0.57,0.21 0.51,0.80 -0.09,0.93 -0.36,0.07 -0.65,0.45 -0.56,0.71 0.02,0.08 0.26,0.26 0.52,0.38 0.72,0.34 0.62,0.89 -0.15,0.89 -0.39,0 -0.70,0.20 -0.69,0.46 0.00,0.44 0.23,1.14 0.47,1.45 0.30,0.39 0.34,0.57 0.16,0.77 -0.16,0.18 -0.40,0.16 -0.81,-0.08 -0.46,-0.28 -0.58,-0.27 -0.69,0.06 -0.15,0.48 -0.10,0.80 0.24,1.46 0.18,0.34 0.31,0.68 0.27,0.75 -0.03,0.06 -0.22,0.11 -0.43,0.11 -0.27,0 -0.38,-0.05 -0.42,-0.20 -0.09,-0.32 -0.30,-0.47 -0.57,-0.39 -0.29,0.08 -0.48,0.55 -0.31,0.78 0.16,0.22 0.12,0.82 -0.06,0.98 -0.19,0.16 -0.51,0.00 -0.51,-0.25 0,-0.28 -0.32,-1.00 -0.44,-1.00 -0.06,-0.00 -0.27,0.15 -0.46,0.34 -0.31,0.32 -0.34,0.38 -0.28,0.78 0.03,0.24 0.13,0.67 0.22,0.96 0.19,0.62 0.10,0.87 -0.34,0.92 -0.21,0.02 -0.29,-0.01 -0.29,-0.12 0,-0.08 -0.10,-0.30 -0.22,-0.47 -0.12,-0.17 -0.24,-0.42 -0.26,-0.56 -0.04,-0.32 -0.31,-0.54 -0.46,-0.37 -0.07,0.09 -0.05,0.18 0.09,0.35 0.19,0.22 0.19,0.32 -0.04,0.65 -0.06,0.08 -0.14,0.33 -0.17,0.53 -0.11,0.68 -0.53,0.97 -0.84,0.57 z M 53.35,155.96 c 0,-0.05 -0.04,-0.10 -0.09,-0.10 -0.05,0 -0.09,0.04 -0.09,0.10 0,0.05 0.04,0.10 0.09,0.10 0.05,0 0.09,-0.04 0.09,-0.10 z m 10.44,7.95 c -0.90,-0.47 -0.69,-0.69 0.61,-0.67 0.43,0.00 1.07,-0.00 1.42,-0.03 0.56,-0.03 0.64,-0.02 0.64,0.15 0,0.20 -0.32,0.50 -0.78,0.73 -0.44,0.22 -1.28,0.14 -1.89,-0.17 z m 3.87,-0.73 c -0.27,-0.11 -0.44,-0.27 -0.59,-0.58 -0.33,-0.66 -0.26,-1.10 0.29,-1.82 0.15,-0.20 0.28,-0.24 0.79,-0.24 1.07,0 1.55,0.40 1.55,1.30 -8.57e-4,1.21 -0.90,1.81 -2.04,1.35 z m -7.07,-0.10 c -0.52,-0.41 -0.68,-1.65 -0.28,-2.08 0.32,-0.33 0.59,-0.46 0.97,-0.46 1.07,0 1.77,1.08 1.33,2.06 -0.22,0.50 -0.49,0.65 -1.19,0.65 -0.41,0 -0.69,-0.05 -0.83,-0.16 z m 3.45,-1.24 c -0.03,-0.07 -0.02,-0.17 0.02,-0.23 0.06,-0.07 0.11,-0.06 0.16,0.01 0.03,0.07 0.02,0.17 -0.02,0.23 -0.06,0.07 -0.11,0.06 -0.16,-0.01 z m 1.33,-0.00 c -0.03,-0.06 -0.02,-0.17 0.03,-0.23 0.12,-0.14 0.42,-0.01 0.37,0.15 -0.05,0.18 -0.32,0.23 -0.40,0.07 z m 1.14,-2.32 c -0.31,-0.15 -0.58,-0.27 -0.60,-0.27 -0.01,-3.3e-4 -0.01,-0.10 0,-0.24 0.01,-0.13 0.20,-0.38 0.43,-0.56 0.73,-0.58 1.85,-0.49 2.60,0.22 0.15,0.14 0.28,0.32 0.28,0.39 -0.00,0.27 -0.76,0.63 -1.45,0.68 -0.57,0.04 -0.76,0.00 -1.25,-0.22 z m 0.54,-0.43 c 0.02,-0.14 0.02,-0.29 -0.00,-0.32 -0.11,-0.12 -0.37,-0.04 -0.54,0.16 -0.15,0.19 -0.15,0.23 -0.03,0.32 0.27,0.19 0.54,0.11 0.59,-0.16 z m 1.59,-0.00 c 0,-0.08 -0.06,-0.16 -0.14,-0.16 -0.07,0 -0.14,0.07 -0.14,0.16 0,0.08 0.06,0.16 0.14,0.16 0.07,0 0.14,-0.07 0.14,-0.16 z m -7.82,0.38 c -0.36,-0.08 -0.84,-0.38 -0.84,-0.53 0,-0.04 0.07,-0.16 0.16,-0.25 0.94,-0.94 2.92,-0.90 3.34,0.07 0.15,0.35 0.06,0.50 -0.45,0.69 -0.35,0.13 -1.65,0.14 -2.21,0.02 z m 0.57,-0.48 c 0.04,-0.44 -0.09,-0.53 -0.49,-0.34 -0.42,0.20 -0.43,0.34 -0.03,0.54 0.40,0.20 0.49,0.16 0.53,-0.20 z m 1.61,-0.02 c -0.04,-0.27 -0.26,-0.31 -0.26,-0.04 0,0.13 0.06,0.22 0.14,0.22 0.08,0 0.13,-0.07 0.11,-0.18 z"
         style="fill:#FF1493;stroke-width:0.10" />
      <path
         id="path25"
         d="m 64.06,161.84 c -0.03,-0.07 -0.02,-0.17 0.02,-0.23 0.06,-0.07 0.11,-0.06 0.16,0.01 0.03,0.07 0.02,0.17 -0.02,0.23 -0.06,0.07 -0.11,0.06 -0.16,-0.01 z m 1.33,-0.00 c -0.03,-0.06 -0.02,-0.17 0.03,-0.23 0.12,-0.14 0.42,-0.01 0.37,0.15 -0.05,0.18 -0.32,0.23 -0.40,0.07 z m 1.14,-2.32 c -0.31,-0.15 -0.58,-0.27 -0.60,-0.27 -0.01,-3.3e-4 -0.01,-0.10 0,-0.24 0.01,-0.13 0.20,-0.38 0.43,-0.56 0.73,-0.58 1.85,-0.49 2.60,0.22 0.15,0.14 0.28,0.32 0.28,0.39 -0.00,0.27 -0.76,0.63 -1.45,0.68 -0.57,0.04 -0.76,0.00 -1.25,-0.22 z m 0.54,-0.43 c 0.02,-0.14 0.02,-0.29 -0.00,-0.32 -0.11,-0.12 -0.37,-0.04 -0.54,0.16 -0.15,0.19 -0.15,0.23 -0.03,0.32 0.27,0.19 0.54,0.11 0.59,-0.16 z m 1.59,-0.00 c 0,-0.08 -0.06,-0.16 -0.14,-0.16 -0.07,0 -0.14,0.07 -0.14,0.16 0,0.08 0.06,0.16 0.14,0.16 0.07,0 0.14,-0.07 0.14,-0.16 z m -7.82,0.38 c -0.36,-0.08 -0.84,-0.38 -0.84,-0.53 0,-0.04 0.07,-0.16 0.16,-0.25 0.94,-0.94 2.92,-0.90 3.34,0.07 0.15,0.35 0.06,0.50 -0.45,0.69 -0.35,0.13 -1.65,0.14 -2.21,0.02 z m 0.57,-0.48 c 0.04,-0.44 -0.09,-0.53 -0.49,-0.34 -0.42,0.20 -0.43,0.34 -0.03,0.54 0.40,0.20 0.49,0.16 0.53,-0.20 z m 1.61,-0.02 c -0.04,-0.27 -0.26,-0.31 -0.26,-0.04 0,0.13 0.06,0.22 0.14,0.22 0.08,0 0.13,-0.07 0.11,-0.18 z"
         style="fill:#424594;stroke-width:0.10" />
    </g>
  </g>
</svg>
